<?xml version="1.0" encoding="UTF-8" standalone="no"?>
<svg
   xmlns:dc="http://purl.org/dc/elements/1.1/"
   xmlns:cc="http://creativecommons.org/ns#"
   xmlns:rdf="http://www.w3.org/1999/02/22-rdf-syntax-ns#"
   xmlns:svg="http://www.w3.org/2000/svg"
   xmlns="http://www.w3.org/2000/svg"
   xmlns:sodipodi="http://sodipodi.sourceforge.net/DTD/sodipodi-0.dtd"
   xmlns:inkscape="http://www.inkscape.org/namespaces/inkscape"
   sodipodi:docname="Pikachu 2 Layered.svg"
   inkscape:version="1.0 (4035a4fb49, 2020-05-01)"
   id="svg2303"
   version="1.1"
   viewBox="0 0 210 297"
   height="297mm"
   width="210mm">
  <defs
     id="defs2297" />
  <sodipodi:namedview
     inkscape:window-maximized="1"
     inkscape:window-y="-8"
     inkscape:window-x="-8"
     inkscape:window-height="697"
     inkscape:window-width="1366"
     inkscape:snap-global="false"
     showgrid="false"
     inkscape:document-rotation="0"
     inkscape:current-layer="layer1"
     inkscape:document-units="mm"
     inkscape:cy="381.61402"
     inkscape:cx="495.06252"
     inkscape:zoom="0.49497475"
     inkscape:pageshadow="2"
     inkscape:pageopacity="0.0"
     borderopacity="1.0"
     bordercolor="#666666"
     pagecolor="#ffffff"
     id="base" />
  <metadata
     id="metadata2300">
    <rdf:RDF>
      <cc:Work
         rdf:about="">
        <dc:format>image/svg+xml</dc:format>
        <dc:type
           rdf:resource="http://purl.org/dc/dcmitype/StillImage" />
        <dc:title></dc:title>
      </cc:Work>
    </rdf:RDF>
  </metadata>
  <g
     id="layer1"
     inkscape:groupmode="layer"
     inkscape:label="Layer 1">
    <g
       id="g3386">
      <path
         id="path3169"
         style="fill:#000000;stroke-width:0.70715"
         d="M 312.00195 43.769531 C 311.83263 43.770514 311.66339 43.783963 311.49414 43.806641 C 311.00205 43.825538 310.53426 43.949388 310.07422 44.242188 C 309.55174 44.501463 309.0536 44.862955 308.60742 45.337891 C 306.7988 47.263069 300.52599 63.822965 296.11328 78.324219 C 277.06484 140.92174 277.32155 195.53436 296.91602 248.7832 C 302.72761 264.57646 315.39854 287.00931 321.74414 292.74219 C 324.52149 295.25134 324.53944 295.30206 323.91797 298.72266 C 323.57328 300.61998 323.09646 313.51594 322.85938 327.38086 L 322.42969 352.58984 L 318.10547 349.40234 C 309.02251 342.70563 295.09569 337.08316 281.55859 334.65039 C 272.77414 333.07176 258.15592 333.08822 255.72852 334.67773 C 253.60314 336.0703 253.60484 336.88926 255.74023 341.71484 L 257.30078 345.24414 C 257.27432 345.34657 257.23443 345.44451 257.16602 345.53711 C 257.0617 345.60854 256.89135 345.71443 256.64844 345.85352 L 255.16602 346.3418 C 252.80744 347.12019 248.43449 351.19997 247.04102 353.92188 C 245.7257 356.49108 246.03868 360.34904 247.60352 360.8457 C 248.8946 361.25548 248.87927 361.35856 247.29297 363.07031 C 244.98319 365.56261 244.49848 368.66396 245.78125 370.78711 C 246.01256 371.23631 246.33012 371.61233 246.73438 371.89258 C 247.00083 372.12086 247.29035 372.33273 247.62109 372.50977 C 248.17899 372.80835 248.48129 373.05996 248.57227 373.4375 C 248.57605 373.4564 248.5802 373.47997 248.58398 373.5 C 248.65202 373.88714 248.51494 374.40506 248.20312 375.23047 C 246.79007 378.9741 249.50864 383.84766 253.00977 383.84766 C 254.25973 383.84766 254.64049 384.37675 255 386.625 C 255.2691 388.3081 256.01468 389.74823 257.07227 390.66602 C 257.3546 391.01146 257.63345 391.26021 257.88672 391.35742 C 257.92073 391.37254 257.94721 391.38401 257.98047 391.39648 L 258.85352 392.08398 C 258.82706 392.15353 258.7663 392.22059 258.64648 392.28711 L 256.00781 392.62891 C 254.33624 392.84472 246.92098 393.67129 239.53125 394.46484 C 184.96179 400.32493 127.24371 412.83212 75.123047 430.09375 C 71.492395 431.29621 68.732682 432.34886 66.710938 433.36328 C 66.493615 433.46608 66.291986 433.57399 66.09375 433.68359 C 61.21986 436.32216 61.487351 438.78564 65.433594 443.10156 C 67.107509 444.93233 69.569897 447.86306 70.904297 449.61328 C 72.238697 451.36347 76.042171 455.97591 79.357422 459.86523 C 82.672672 463.75456 91.73036 474.89386 99.486328 484.61719 C 112.96643 501.51663 124.16262 515.17901 130.77539 522.80273 C 132.46219 524.74741 134.3132 526.89552 134.88867 527.57617 C 135.53932 528.34572 136.93689 528.81498 138.58594 528.82031 C 141.17726 528.82409 173.84155 521.17259 197.80859 514.94336 C 209.60526 511.87729 241.11254 504.0625 241.67773 504.0625 C 241.8361 504.0625 244.66002 509.39517 247.95312 515.91406 C 260.11995 539.9991 274.81503 562.46035 279.21875 563.70117 C 282.89585 564.73729 290.59316 561.82304 297.54492 556.76172 C 298.98069 555.71645 298.98186 555.75489 298.96875 570.37305 C 298.95363 586.86573 300.26796 601.11753 301.95703 602.80664 C 303.22442 604.07407 306.20416 603.84159 321.55664 601.28516 C 326.99931 600.37883 331.53826 599.72167 331.64258 599.82617 C 331.74689 599.93049 330.88622 603.7676 329.72852 608.35156 C 324.30006 629.846 325.11983 642.40978 332.57227 651.83789 C 335.63368 655.71085 335.9716 656.80087 334.11328 656.82227 C 330.51313 656.86233 316.93574 659.05712 312.17773 660.36914 C 309.17048 661.19841 303.4888 663.40407 299.54883 665.26953 C 288.65374 670.42813 280.81997 676.20884 276.69141 681.75586 C 276.57613 681.90893 276.464 682.06287 276.35742 682.21484 C 272.69075 687.38603 272.2748 692.33028 275.66016 696.35352 C 277.79631 698.89226 280.02594 700.06199 285.78711 700.69336 C 285.80979 700.69336 285.82807 700.7013 285.84961 700.70508 C 286.0503 700.73531 286.41002 700.7575 286.69141 700.7832 C 289.15895 701.01716 292.2066 701.17202 296.10352 701.29883 C 317.35644 701.99029 343.70544 701.05895 365.75781 698.83398 C 410.75532 694.29443 428.43266 687.95649 422.10547 678.63281 L 420.38867 676.10547 L 432.49609 673.49805 C 452.68735 669.15125 466.10191 666.91936 477.47852 666.47266 C 478.63233 666.45754 479.77744 666.43945 481.02344 666.43945 C 483.99743 666.4421 486.80545 666.52731 489.53125 666.68945 C 494.28665 667.07081 498.98094 667.79512 504.04883 668.83789 C 514.39086 670.9658 519.38419 672.6037 533.58398 678.51953 C 567.46235 692.63372 583.72724 697.48013 603.46484 699.3457 C 622.51181 701.14593 644.50011 695.91017 651.79297 687.83789 C 656.26215 682.89102 656.81625 678.26175 653.31055 673.63867 C 652.98059 673.13728 652.60966 672.64671 652.18945 672.16992 C 650.24273 669.96056 646.83898 667.59082 642.65625 665.30273 C 642.44649 665.18481 642.22463 665.06714 642.00977 664.94922 C 641.69153 664.77914 641.37944 664.60817 641.05273 664.43945 C 640.56257 664.17829 640.09745 663.91862 639.58203 663.65625 C 627.11779 657.31125 618.65381 654.77628 604.22656 653.07031 L 597.06445 652.22461 C 597.05311 652.18152 597.04883 652.13709 597.04883 652.08984 L 599.79688 648.4375 C 606.64564 639.3364 609.85131 628.99229 609.91602 615.79297 C 609.98329 602.03783 607.24195 590.44883 597.71289 564.2168 C 588.95006 540.09415 583.63375 520.72546 579.8125 499.01562 L 578.11523 489.37109 L 584.39453 488.56641 C 594.91938 487.21662 601.82462 483.74687 608.64062 476.38477 C 609.92309 474.99953 611.22991 473.24733 612.47266 471.30469 C 613.55424 469.68478 614.53785 467.97385 615.40234 466.16992 C 615.52367 465.91669 615.6375 465.65841 615.75391 465.40234 C 617.19134 462.42185 618.35484 459.37272 619.00586 456.68555 C 620.35054 451.13478 620.02657 440.45773 618.31641 433.96484 C 611.7816 409.1541 587.35466 387.66516 565.01758 386.73438 C 564.68574 386.71548 564.35565 386.71068 564.02539 386.70312 C 563.88252 386.70101 563.73838 386.6875 563.5957 386.6875 L 563.50391 386.6875 C 563.36822 386.6861 563.23127 386.67578 563.0957 386.67578 L 558.83594 386.67578 L 562.31055 381.55078 C 566.58308 375.24425 574.21003 360.67462 577.1875 353.13477 C 580.89091 343.75666 582.3742 336.40269 582.40625 327.27539 C 582.45349 313.76934 579.681 306.33877 569.07617 291.56445 C 562.08 281.81756 559.50898 276.82481 554.87305 263.98633 C 549.57302 249.30871 545.75907 241.59659 540.57031 235.45117 C 539.52342 234.11581 538.47582 232.95911 537.41797 231.96484 C 536.05209 230.4204 535.65492 229.61096 536.23047 229.43945 C 536.78534 229.27402 539.94409 228.43598 543.25 227.57812 C 556.4074 224.16383 579.40321 214.75695 595.58008 206.16992 C 617.79361 194.37851 636.17194 181.82271 654.20312 165.94141 C 663.39244 157.98387 672.11993 149.4725 680.34766 140.43555 C 689.69193 130.41359 697.47967 120.93542 703.33008 112.43945 C 706.06785 108.46354 706.68271 107.05903 706.31836 105.60742 C 705.28458 101.48838 703.58938 100.81141 688.2168 98.384766 C 685.14975 97.900608 680.61756 97.551092 675.44531 97.326172 C 665.922 96.611577 656.37438 96.618782 646.88281 97.322266 C 641.96572 97.536943 637.653 97.870474 634.65039 98.326172 C 602.11021 103.26477 572.74199 114.92082 547.13867 133.0625 C 524.39219 149.17997 503.26436 173.48469 498.25781 189.29297 L 497.04297 193.13281 C 496.83623 193.15171 496.58748 193.13648 496.29102 193.08398 L 492.62305 191.42188 C 477.93002 184.75974 452.86381 182.42021 432.68359 185.82812 C 408.09357 189.98073 379.21426 201.02184 365.16602 211.64258 C 362.9624 213.30857 361.7335 214.23231 361.04102 214.61914 C 360.85355 214.34255 360.72074 213.62571 360.63086 212.15234 C 361.36968 205.01063 360.89964 179.30068 359.77148 170.28906 C 355.34562 134.92655 345.50363 102.16603 330.01758 71.234375 C 323.57054 58.357109 317.58486 47.784914 315.33203 45.300781 C 314.40045 44.273506 313.20615 43.764568 312.00195 43.771484 L 312.00195 43.769531 z M 296.06641 447.49805 C 296.18697 447.49427 296.34932 447.55225 296.56445 447.67773 L 304.20117 455.29102 C 313.17612 464.2406 324.08111 472.98616 337.08008 481.65625 C 341.74727 484.76914 345.6861 487.41668 345.83203 487.53906 C 345.97792 487.6619 346.73437 491.03639 347.51367 495.03906 C 348.60433 500.64066 348.94609 505.41022 348.99609 515.75195 C 349.08302 533.6767 347.14996 546.16644 341.36328 565.07617 C 339.9099 569.8256 339.19242 571.23354 338.27539 571.13867 C 337.61828 571.07064 335.72911 570.89478 334.07617 570.74609 C 333.74698 570.71586 333.44348 570.66865 333.14648 570.61914 L 332.82227 570.56641 C 331.79544 570.3642 331.07031 570.06383 331.07031 569.78906 C 331.07031 569.41149 333.11698 560.91603 335.61914 550.91211 C 339.79873 534.2015 341.60288 526.03211 341.83203 521.91016 C 341.9458 521.40952 342.03781 521.0427 342.08203 520.9707 C 342.16631 520.83426 342.04343 520.46699 341.80078 520.00781 C 341.72217 519.34931 341.57062 518.8577 341.33984 518.50586 C 339.45095 515.62306 335.00965 514.77199 307.85352 512.08984 C 304.18053 511.72701 303.27396 511.38073 302.81641 510.16406 C 301.75349 507.33769 297.14624 465.57758 296.25586 450.69531 L 296.06641 447.49805 z "
         transform="scale(0.26458333)" />
      <g
         id="g3252">
        <path
           d="m 81.841085,11.997045 c -0.04484,2.62e-4 -0.08971,0.0042 -0.134478,0.0099 -0.01949,7.11e-4 -0.03857,0.0035 -0.05774,0.0058 0.01909,-0.002 0.03802,-0.0048 0.05737,-0.0055 0.04477,-0.0057 0.08965,-0.0096 0.134478,-0.0099 z m 5.37621,15.024304 c -0.02744,5.61e-4 -0.07171,0.0195 -0.122419,0.04531 l -0.34935,0.2854 -1.527501,1.597297 v 3.74e-4 c -0.207123,0.216636 -0.40673,0.427938 -0.599304,0.635482 -5.8e-5,6.4e-5 5.8e-5,3.75e-4 0,3.75e-4 -0.192566,0.207539 -0.378516,0.411087 -0.558379,0.612461 -5.8e-5,6.6e-5 6e-5,3.74e-4 0,3.74e-4 -0.179854,0.201369 -0.353934,0.400079 -0.52293,0.598211 -5.8e-5,6.9e-5 5.9e-5,3.74e-4 0,3.74e-4 -0.168989,0.198128 -0.333355,0.395277 -0.493332,0.593093 -5.8e-5,7.3e-5 6e-5,3.74e-4 0,3.74e-4 -0.159969,0.197814 -0.316044,0.395953 -0.468847,0.596382 -5.6e-5,7.5e-5 5.8e-5,3.75e-4 0,3.75e-4 -0.152797,0.200429 -0.302371,0.402836 -0.449843,0.608807 -5.8e-5,7.9e-5 5.6e-5,3.74e-4 0,3.74e-4 -0.147473,0.205974 -0.293063,0.415197 -0.437055,0.629636 -5.7e-5,8.4e-5 5.6e-5,3.74e-4 0,3.74e-4 -0.143993,0.214445 -0.287024,0.433763 -0.429381,0.659602 -5.6e-5,8.8e-5 5.5e-5,1.87e-4 0,3.74e-4 -0.142359,0.225847 -0.284252,0.458171 -0.426822,0.698337 -5.5e-5,9.2e-5 5.4e-5,1.87e-4 0,3.74e-4 -0.142573,0.240175 -0.28585,0.488055 -0.430477,0.745477 -5.4e-5,9.6e-5 5.2e-5,1.87e-4 0,3.75e-4 -0.144632,0.257435 -0.291081,0.524146 -0.439613,0.801754 -5.2e-5,9.8e-5 5.3e-5,1.87e-4 0,3.75e-4 -0.148537,0.277621 -0.299583,0.566079 -0.453864,0.866802 -5.2e-5,9.9e-5 5e-5,1.87e-4 0,3.74e-4 -0.154289,0.300736 -0.312085,0.613487 -0.473965,0.940252 -5e-5,1.01e-4 5.1e-5,1.87e-4 0,3.74e-4 -0.161882,0.32678 -0.328222,0.667469 -0.499542,1.023205 -4.9e-5,1.03e-4 5e-5,1.87e-4 0,3.74e-4 -0.171326,0.355751 -0.347996,0.72656 -0.530606,1.114196 -4.8e-5,1.05e-4 4.9e-5,1.87e-4 0,3.74e-4 -0.182615,0.387653 -0.371403,0.791859 -0.567148,1.214324 -4.6e-5,1.05e-4 4.9e-5,1.87e-4 0,3.75e-4 l -0.70601,1.522749 v 3.74e-4 c -0.01839,0.08975 -0.03446,0.193092 -0.04824,0.308789 -1.5e-5,1.33e-4 1.7e-5,1.87e-4 0,3.74e-4 -0.01377,0.115746 -0.02534,0.24371 -0.03471,0.382972 -1e-5,1.31e-4 7e-6,1.87e-4 0,3.74e-4 -0.0094,0.1393 -0.01673,0.289824 -0.02193,0.45021 -3e-6,1.31e-4 4e-6,1.88e-4 0,3.75e-4 -0.0052,0.160416 -0.0083,0.330707 -0.0095,0.509775 -2e-6,1.29e-4 0,1.87e-4 0,3.74e-4 l 0.06761,1.407272 v 3.74e-4 c 0.02704,0.563978 0.05856,1.117999 0.09501,1.662708 7e-6,1.2e-4 -8e-6,1.87e-4 0,3.74e-4 0.03646,0.544702 0.078,1.080192 0.124246,1.607162 1.1e-5,1.2e-4 -10e-6,1.87e-4 0,3.74e-4 0.04625,0.526963 0.09743,1.045238 0.153847,1.556003 1.3e-5,1.18e-4 -1.3e-5,1.88e-4 0,3.75e-4 0.05642,0.510757 0.117925,1.013865 0.184907,1.509959 1.5e-5,1.18e-4 -1.7e-5,1.87e-4 0,3.74e-4 0.03348,0.247985 0.06832,0.494293 0.104513,0.738901 1.8e-5,1.18e-4 -1.7e-5,1.87e-4 0,3.74e-4 0.03619,0.244606 0.07397,0.487613 0.112918,0.729035 1.9e-5,1.17e-4 -1.8e-5,1.87e-4 0,3.74e-4 0.03895,0.241417 0.0792,0.481108 0.120957,0.719531 2.1e-5,1.18e-4 -2e-5,1.88e-4 0,3.75e-4 0.04176,0.238422 0.08511,0.475508 0.129728,0.711129 2.2e-5,1.16e-4 -2.2e-5,1.87e-4 0,3.74e-4 0.04462,0.235617 0.09062,0.469713 0.138132,0.702723 2.5e-5,1.16e-4 -2.2e-5,1.87e-4 0,3.74e-4 0.04752,0.233007 0.0968,0.464826 0.147269,0.695414 2.6e-5,1.16e-4 -2.4e-5,1.87e-4 0,3.74e-4 0.05047,0.230589 0.102574,0.46011 0.15604,0.688472 2.6e-5,1.14e-4 -2.8e-5,1.87e-4 0,3.74e-4 0.05347,0.22836 0.108297,0.455569 0.164809,0.681893 2.8e-5,1.16e-4 -3e-5,1.87e-4 0,3.74e-4 0.05651,0.226322 0.114706,0.451565 0.17431,0.676046 3e-5,1.14e-4 -3.2e-5,1.87e-4 0,3.74e-4 0.05961,0.224479 0.121065,0.448102 0.183811,0.670931 3.2e-5,1.12e-4 -3.2e-5,1.87e-4 0,3.74e-4 0.06275,0.222827 0.127011,0.444812 0.192947,0.66618 3.4e-5,1.12e-4 -3.3e-5,1.87e-4 0,3.74e-4 0.06594,0.221368 0.133641,0.44206 0.202813,0.662159 3.6e-5,1.13e-4 -3.3e-5,1.87e-4 0,3.74e-4 0.06918,0.2201 0.139856,0.439482 0.212316,0.658506 3.6e-5,1.1e-4 -3.7e-5,1.87e-4 0,3.74e-4 0.07246,0.219023 0.146754,0.437809 0.222547,0.655947 3.7e-5,1.09e-4 -3.8e-5,1.88e-4 0,3.75e-4 0.0758,0.218138 0.153604,0.435579 0.232779,0.653025 3.9e-5,1.08e-4 -3.9e-5,1.87e-4 0,3.74e-4 0.07918,0.217446 0.160042,0.434617 0.242646,0.651562 4e-5,1.07e-4 -4.1e-5,1.87e-4 0,3.74e-4 0.08261,0.216945 0.167162,0.43383 0.253243,0.650466 4.3e-5,1.04e-4 -4.2e-5,1.87e-4 0,3.74e-4 0.08608,0.216636 0.173868,0.432851 0.263476,0.649369 4.3e-5,1.05e-4 -4.5e-5,1.87e-4 0,3.74e-4 0.08961,0.21652 0.181256,0.433141 0.274437,0.649734 4.5e-5,1.05e-4 -4.5e-5,1.87e-4 0,3.74e-4 0.09318,0.216595 0.188234,0.43324 0.285036,0.650101 4.5e-5,1.01e-4 -4.5e-5,1.87e-4 0,3.74e-4 0.09681,0.216863 0.195528,0.433878 0.295999,0.651197 4.6e-5,1.01e-4 -4.7e-5,1.87e-4 0,3.74e-4 0.100474,0.217321 0.203138,0.434691 0.307327,0.652659 4.7e-5,1.01e-4 -4.9e-5,1.87e-4 0,3.74e-4 0.208431,0.436041 0.424323,0.873568 0.647908,1.313356 5e-5,9.8e-5 -5.1e-5,1.87e-4 0,3.75e-4 0.183736,0.361399 0.395601,0.762052 0.620866,1.177051 5.4e-5,1e-4 -5.4e-5,1.88e-4 0,3.75e-4 0.225274,0.415014 0.464271,0.844045 0.702358,1.262195 0.238192,0.418297 0.47533,0.825472 0.697605,1.196419 0.111113,0.18545 0.218369,0.361708 0.320118,0.525855 0.101805,0.164233 0.198027,0.316166 0.286862,0.452768 l 1.253061,1.926184 c 0.02051,0.014 0.03815,0.02205 0.05335,0.02558 l 0.575188,-1.306413 c 0.486307,-1.104393 0.767768,-1.554985 0.917231,-1.261099 0.167191,0.03263 0.225884,0.488665 0.172847,1.370728 -0.01145,0.190287 -0.02179,0.398878 -0.03289,0.594921 -0.0017,0.26654 -0.0039,0.533388 -0.01023,0.855107 -0.0331,1.595036 -0.137805,4.247172 -0.232414,5.89366 -0.0946,1.646481 -0.172873,5.159427 -0.173581,7.806689 l -0.0015,4.271148 0.019,0.297827 c 0.04162,0.08835 0.101555,0.137146 0.207931,0.157866 l 0.287229,-0.10963 c 2.036149,-0.776395 7.247303,2.446498 9.569523,5.918511 0.04517,0.06754 0.0828,0.13152 0.126074,0.198063 0.121452,0.172884 0.234539,0.342945 0.329983,0.506123 0.09829,0.16803 0.190968,0.33708 0.278824,0.50685 0.681042,1.26156 1.009296,2.40856 1.093001,3.74055 0.02635,0.41925 0.03569,0.73965 0.02266,1.00347 -0.02162,0.43969 -0.105062,0.72201 -0.274439,1.04147 -0.08343,0.15736 -0.184825,0.31035 -0.299652,0.45716 -0.03824,0.0489 -0.07803,0.0972 -0.119131,0.14471 -0.01598,0.0217 -0.03125,0.044 -0.04787,0.065 -0.128093,0.16285 -0.311502,0.32397 -0.523295,0.47397 -0.461884,0.35817 -0.99747,0.61839 -1.512883,0.70784 L 95.822777,108.44 c -0.0056,0.008 -0.0063,0.0173 -0.0084,0.026 l 1.321761,0.78823 c 1.580483,0.94256 4.848432,2.42759 7.276452,3.30678 1.32218,0.47876 5.74774,1.57756 6.3541,1.57756 0.0532,0 0.0718,0.16224 0.0482,0.3669 0.0581,0.0745 0.0608,0.14935 0.0117,0.22583 -0.0204,0.0591 -0.058,0.11904 -0.11839,0.17943 -0.046,0.046 -0.17585,0.0825 -0.35995,0.11145 -0.51859,0.20124 -1.48989,0.24673 -3.02796,0.15421 -4.81458,-0.2896 -9.323114,-1.83599 -13.427375,-4.60551 -1.782303,-1.2027 -4.336028,-3.62432 -5.41239,-5.13247 -1.555638,-2.1797 -2.7496,-5.04755 -3.271696,-7.858218 -0.269892,-1.452897 -0.228601,-1.404964 -2.359219,-2.712223 -2.930441,-1.798017 -5.525966,-2.662669 -10.594921,-3.529692 -1.723668,-0.294818 -3.133931,-0.50095 -3.133931,-0.457884 0,0.04306 0.325841,0.557962 0.723917,1.144162 0.745769,1.098198 2.08302,2.44226 2.824411,2.839029 0.259867,0.139082 0.34245,0.252162 0.265303,0.372007 -0.01102,0.01712 -0.02526,0.0344 -0.04275,0.05189 -0.0065,0.0065 -0.01755,0.01042 -0.02631,0.01607 -0.0011,0.08062 -0.129868,0.08809 -0.384066,0.02119 -0.520605,-0.06995 -1.395758,-0.385707 -2.004021,-0.764845 -0.404278,-0.252 -0.420292,-0.237202 -0.42061,0.43742 l 0.02887,0.452403 c 0.108682,0.952122 0.530864,2.260018 1.03234,3.127352 0.257545,0.44542 0.417805,0.860471 0.35593,0.922347 -0.228445,0.228445 -1.706572,-1.023725 -2.254705,-1.910104 -0.428074,-0.692223 -0.536742,-0.988788 -0.573726,-1.945916 -0.06661,-0.440139 -0.07999,-0.869605 -0.03289,-1.243561 -0.02512,-0.630552 -0.07114,-1.110057 -0.117668,-1.156587 -0.135505,-0.135503 -0.969538,0.380824 -1.674037,1.03636 l -0.450941,0.419515 c 0.01735,0.04291 0.05589,0.08754 0.116207,0.130459 l 0.428284,0.143248 c 0.269616,0.09036 0.454073,0.19703 0.558378,0.32304 0.105973,0.111143 0.147487,0.239498 0.121323,0.37749 0.04007,0.148417 -0.0343,0.254481 -0.256532,0.411475 -0.01704,0.01654 -0.03461,0.03279 -0.05335,0.04933 -0.124911,0.1445 -0.288135,0.301587 -0.494793,0.47433 -0.900415,0.752656 -1.071835,1.154869 -0.522931,1.23552 0.09949,0.0082 0.207933,0.01177 0.323772,0.01388 0.01768,-5.61e-4 0.03314,-2.2e-5 0.05152,-7.48e-4 0.385893,-0.01781 0.806871,-0.02422 0.935502,-0.01426 6.3e-5,3e-6 2.99e-4,-6e-6 3.74e-4,0 0.02273,0.0019 0.04363,0.0051 0.06285,0.0099 1.09e-4,2.8e-5 2.62e-4,-2.6e-5 3.74e-4,0 0.01919,0.0048 0.03687,0.01111 0.05262,0.01864 9.8e-5,4.7e-5 2.62e-4,-4.7e-5 3.75e-4,0 0.01573,0.0075 0.02968,0.01669 0.04202,0.02668 0.136977,0.110535 0.06791,0.362529 -0.167732,0.569341 -0.04279,0.03757 -0.09116,0.07362 -0.144711,0.10707 -0.0533,0.03328 -0.111973,0.08407 -0.172483,0.146903 -0.181738,0.188796 -0.379444,0.488405 -0.494793,0.764481 -0.127237,0.304513 -0.179988,0.532946 -0.159693,0.689566 0.02188,0.0647 0.05644,0.11929 0.103417,0.16188 0.02344,0.0212 0.04965,0.0398 0.0793,0.0548 0.02981,0.0151 0.06295,0.0267 0.09903,0.0351 0.138449,0.0107 0.325667,-0.0247 0.566052,-0.10853 0.28433,-0.0991 0.489196,-0.14261 0.628905,-0.11913 1.13e-4,2e-5 2.62e-4,-2e-5 3.75e-4,0 0.02314,0.004 0.04469,0.01 0.06432,0.0172 1.05e-4,4e-5 2.62e-4,-4e-5 3.75e-4,0 0.0196,0.008 0.03714,0.0174 0.05335,0.0289 8.7e-5,6e-5 2.81e-4,-6e-5 3.75e-4,0 0.01621,0.0115 0.03091,0.0254 0.04385,0.0409 0.09116,0.10896 0.103069,0.31689 0.0581,0.64279 0.005,0.11555 0.0061,0.24368 0.0033,0.39284 -0.0052,0.27216 -0.0036,0.45976 0.01206,0.5993 0.05948,0.16838 0.156304,0.29215 0.285401,0.36251 0.05087,0.0115 0.10923,0.021 0.177965,0.0292 0.0441,0.004 0.08821,0.004 0.132286,0 0.04407,-0.004 0.0881,-0.0119 0.132651,-0.0238 0.219302,-0.11616 0.576223,-0.38445 0.913576,-0.69541 0.846806,-0.78056 0.993657,-0.76366 1.155856,0.13082 0.233805,1.28932 2.363159,5.61048 3.950301,8.01681 1.26341,1.91551 2.385591,3.32801 4.110361,5.10068 0.104398,0.10764 0.22498,0.22666 0.333272,0.33693 0.521108,0.52642 1.084886,1.07981 1.733238,1.69669 5.362231,5.10195 8.205621,7.35223 12.397223,9.81181 1.429003,0.8385 3.554906,2.78949 3.554906,3.26219 0,0.50513 -0.56915,0.60309 -1.905353,0.32816 -0.717794,-0.14767 -1.328877,-0.24002 -1.357941,-0.20537 -0.02906,0.0346 0.09852,0.9469 0.28321,2.0274 0.562948,3.29336 0.773503,6.9464 0.555454,9.63165 -0.303085,3.73248 -0.974422,6.56058 -3.083868,12.98776 -2.523371,7.68837 -3.07128,9.95215 -3.092635,12.8478 0.0042,0.54497 0.03851,1.02698 0.108166,1.46136 0.254632,1.39833 0.978327,2.37327 2.384433,3.31226 0.164543,0.10988 0.325337,0.21131 0.485658,0.30549 0.320641,0.18838 0.639573,0.34755 0.984835,0.48639 0.08631,0.0347 0.17419,0.0682 0.264206,0.1005 0.810142,0.29073 1.787837,0.48964 3.247944,0.69724 1.859092,0.26433 2.474669,0.47801 2.191852,0.76082 -0.235241,0.23524 -2.652336,0.61499 -4.059566,0.63805 l -0.959621,0.0157 -0.4038,0.0263 1.26987,0.60808 c 1.999695,0.95741 4.333581,1.51735 6.851815,1.65905 0.40447,0.003 0.85029,0.004 1.3806,0.004 0.44057,7.5e-4 0.81284,-7.4e-4 1.17741,-0.002 0.27062,-0.0143 0.5423,-0.0314 0.81565,-0.0548 2.85191,-0.24433 4.48816,-0.524 10.04348,-1.71643 6.28236,-1.34848 7.68829,-1.5396 11.351,-1.54101 3.40072,-0.002 5.34113,0.25367 8.04933,1.05901 4.59731,1.36712 7.4801,2.31639 10.1279,3.33528 7.60362,2.92593 12.45709,4.25503 16.6227,4.37017 0.23094,0.003 0.46284,0.004 0.69651,0.002 0.23367,-0.002 0.46909,-0.006 0.70747,-0.0138 0.14242,-0.005 0.2773,-0.0109 0.4133,-0.0172 0.99783,-0.0591 1.97219,-0.18865 2.95451,-0.38552 0.0208,-0.004 0.041,-0.009 0.0618,-0.0131 0.17992,-0.0368 0.35769,-0.0761 0.53279,-0.11766 0.0426,-0.0101 0.0845,-0.0208 0.12681,-0.0311 0.17044,-0.0418 0.33898,-0.0849 0.50429,-0.13045 0.0133,-0.004 0.0266,-0.007 0.0398,-0.011 -0.11801,-0.0835 -0.24176,-0.16629 -0.37822,-0.2474 -0.86129,-0.51198 -1.63204,-1.07023 -3.05244,-1.44234 -1.68647,-0.59503 -0.75156,-0.87402 -0.17979,-0.84963 1.33473,0.0571 2.74965,0.84005 3.74383,1.43103 0.37713,0.22414 0.71676,0.47196 1.0064,0.74619 0.0139,-0.005 0.0275,-0.01 0.0413,-0.015 0.32829,-0.11974 0.63663,-0.24545 0.91906,-0.3753 0.0931,-0.0428 0.18288,-0.0862 0.27042,-0.12974 0.005,-0.002 0.01,-0.004 0.0146,-0.007 -0.25513,-0.53522 -0.74338,-1.02857 -1.48584,-1.48911 -0.94284,-0.58485 -1.7866,-1.22229 -3.34149,-1.64736 -1.84616,-0.67972 -0.82251,-0.99845 -0.1966,-0.97059 1.4611,0.0652 3.00961,0.95949 4.09793,1.63457 0.82997,0.51483 1.49519,1.1389 1.87795,1.89877 0.0118,-0.009 0.021,-0.0182 0.0325,-0.027 0.0601,-0.0469 0.11853,-0.0937 0.17029,-0.14032 0.0613,-0.0551 0.11657,-0.10998 0.16554,-0.16444 3.8e-4,-3.8e-4 7.5e-4,-7.5e-4 10e-4,-0.001 0.0489,-0.0545 0.0913,-0.10843 0.12717,-0.16189 1.9e-4,-3.7e-4 5.7e-4,-7.5e-4 7.5e-4,-0.001 0.036,-0.0538 0.0653,-0.1069 0.0873,-0.15933 3e-5,-1.2e-4 -3e-5,-1.9e-4 0,-3.7e-4 0.01,-0.0388 0.0165,-0.0776 0.0208,-0.11657 10e-6,-1.3e-4 -1e-5,-1.9e-4 0,-3.8e-4 0.004,-0.039 0.006,-0.0781 0.005,-0.1173 0,-1.2e-4 0,-1.9e-4 0,-3.7e-4 -0.001,-0.0392 -0.005,-0.0786 -0.0113,-0.11804 -2e-5,-1.1e-4 2e-5,-1.9e-4 0,-3.7e-4 -0.006,-0.0395 -0.0156,-0.0791 -0.0274,-0.11877 -4e-5,-9e-5 4e-5,-1.8e-4 0,-3.7e-4 -0.0162,-0.0338 -0.0355,-0.0683 -0.0577,-0.10378 -5e-5,-8e-5 5e-5,-3.8e-4 0,-3.8e-4 -0.0222,-0.0355 -0.0478,-0.0718 -0.076,-0.10889 -5e-5,-7e-5 6e-5,-3.8e-4 0,-3.8e-4 -0.0282,-0.0371 -0.0595,-0.075 -0.0935,-0.11365 -5e-5,-6e-5 6e-5,-3.7e-4 0,-3.7e-4 -0.0341,-0.0387 -0.0713,-0.0779 -0.11109,-0.11803 -0.47857,-0.48211 -1.36573,-1.06362 -2.55436,-1.65906 -3.31515,-1.66071 -6.24488,-2.47018 -9.87173,-2.7272 l -2.35045,-0.16664 -1.90755,0.92746 c -2.09989,1.02097 -4.65181,1.6632 -6.5814,1.65613 -0.48064,-0.002 -0.98399,-0.0352 -1.50959,-0.10013 -0.5256,-0.0649 -1.07349,-0.16142 -1.6437,-0.28942 -0.19008,-0.0427 -0.38274,-0.0888 -0.57775,-0.13849 -1.75504,-0.44697 -3.70943,-1.17719 -5.85894,-2.18893 -0.5446,-0.24104 -0.99509,-0.45597 -1.35831,-0.64901 -0.18161,-0.0965 -0.34128,-0.18757 -0.48017,-0.2737 -0.13889,-0.0861 -0.25692,-0.16729 -0.35484,-0.24411 -0.50765,-0.3652 -0.53851,-0.61112 -0.26164,-0.888 0.2238,-0.2238 0.58718,-0.15527 2.52439,0.47652 0.74075,0.24159 1.42555,0.44428 2.08039,0.61247 0.32743,0.0841 0.6472,0.15958 0.96291,0.22693 0.63143,0.13473 1.24625,0.237 1.86991,0.31134 0.31183,0.0371 0.62571,0.0673 0.94537,0.091 0.63932,0.0473 1.30089,0.0687 2.0106,0.0687 0.54828,0 1.05874,-0.0125 1.53919,-0.0395 0.64059,-0.0359 1.22803,-0.0972 1.78074,-0.18746 0.41453,-0.0677 0.80926,-0.15176 1.19276,-0.25361 0.76701,-0.20378 1.48792,-0.47892 2.22547,-0.83794 1.59326,-0.77554 2.89015,-1.90193 3.84177,-3.31481 0.10574,-0.15699 0.20727,-0.31731 0.30441,-0.48128 0.0972,-0.16405 0.18963,-0.33159 0.27809,-0.50246 0.0884,-0.17068 0.17263,-0.34453 0.25215,-0.52184 4e-5,-1e-4 -5e-5,-1.8e-4 0,-3.7e-4 0.0795,-0.17731 0.15458,-0.35781 0.2251,-0.54157 4e-5,-1.1e-4 -4e-5,-1.9e-4 0,-3.7e-4 0.0705,-0.18376 0.13667,-0.37054 0.19807,-0.56057 3e-5,-1.1e-4 -4e-5,-1.9e-4 0,-3.8e-4 0.0614,-0.19003 0.11815,-0.38307 0.17029,-0.5792 3e-5,-1.2e-4 -3e-5,-1.9e-4 0,-3.8e-4 0.0521,-0.19613 0.0998,-0.39542 0.14251,-0.59748 3e-5,-1.1e-4 -2e-5,-1.8e-4 0,-3.7e-4 0.0256,-0.12111 0.049,-0.24829 0.0702,-0.38078 1e-5,-1.1e-4 -2e-5,-1.9e-4 0,-3.7e-4 0.0212,-0.13251 0.0402,-0.2702 0.057,-0.41294 2e-5,-1.2e-4 -10e-6,-1.9e-4 0,-3.7e-4 0.0168,-0.14275 0.0317,-0.29036 0.0442,-0.44218 1e-5,-1.1e-4 -1e-5,-1.8e-4 0,-3.7e-4 0.0125,-0.15183 0.0228,-0.30801 0.0311,-0.46775 10e-6,-1.2e-4 0,-1.9e-4 0,-3.8e-4 0.008,-0.15975 0.0146,-0.32316 0.0186,-0.48967 0,-1.2e-4 -1e-5,-1.9e-4 0,-3.8e-4 0.004,-0.16651 0.006,-0.3362 0.006,-0.50831 0,-1.2e-4 0,-1.9e-4 0,-3.8e-4 -1.3e-4,-0.17212 -0.002,-0.34673 -0.007,-0.52329 0,-1.2e-4 0,-1.9e-4 0,-3.8e-4 -0.004,-0.17656 -0.0107,-0.35514 -0.019,-0.53499 -1e-5,-1.2e-4 0,-1.8e-4 0,-3.7e-4 -0.008,-0.17985 -0.0184,-0.36106 -0.0307,-0.54303 -1e-5,-1.2e-4 1e-5,-1.9e-4 0,-3.7e-4 -0.0123,-0.1821 -0.0265,-0.36472 -0.0427,-0.54778 -0.0974,-1.09845 -0.26539,-2.20388 -0.49809,-3.19094 -0.19105,-0.81043 -0.71809,-2.67074 -1.30166,-4.61392 -0.19448,-0.64762 -0.39533,-1.3044 -0.592,-1.93459 -3e-5,-1.2e-4 4e-5,-1.9e-4 0,-3.8e-4 -0.20534,-0.65801 -0.3954,-1.27377 -0.57189,-1.85602 -4e-5,-1.2e-4 3e-5,-1.9e-4 0,-3.7e-4 -0.17653,-0.58234 -0.33941,-1.13097 -0.49151,-1.65504 -0.91259,-3.14447 -1.42561,-5.39741 -2.01754,-8.64973 -0.50198,-2.75809 -1.40339,-8.44721 -1.48949,-9.37073 -0.0252,-0.13428 -0.0432,-0.22038 -0.0512,-0.23863 -0.009,-0.01 -0.0194,-0.0183 -0.0311,-0.027 -0.0163,-0.008 -0.0327,-0.0169 -0.0537,-0.0263 -0.0389,-0.0136 -0.0854,-0.0294 -0.167,-0.0548 -0.0428,-0.007 -0.0868,-0.0133 -0.13448,-0.0135 -0.94355,-0.004 -4.22074,-1.34759 -7.18729,-2.9472 -3.38361,-1.82449 -8.07691,-3.90209 -9.37109,-4.14836 l -0.76741,-0.14618 -0.0292,0.21232 -0.003,0.36653 c -0.007,1.0138 -0.61829,2.0718 -1.41495,2.44984 -0.64477,0.30596 -0.79497,0.31399 -1.47378,0.0793 -0.57751,-0.19968 -0.84616,-0.44008 -1.13904,-1.01955 -0.38157,-0.75496 -0.38623,-0.7575 -0.98886,-0.51161 -1.09535,0.44695 -1.57098,-0.11522 -1.57098,-1.85638 0,-0.85275 -0.0192,-0.89081 -0.26969,-0.53316 -0.36925,0.52719 -1.26204,0.51055 -1.64115,-0.0307 -0.14257,-0.20356 -0.23005,-0.62999 -0.2642,-1.13503 -0.005,-0.0741 -0.006,-0.1521 -0.008,-0.22949 -0.0268,-0.77113 0.059,-1.66485 0.26713,-2.24228 0.048,-0.13313 0.0845,-0.23834 0.12388,-0.35081 0.0231,-0.24151 0.006,-0.38516 -0.0599,-0.4736 -0.0112,-0.002 -0.0184,-0.003 -0.0303,-0.005 -0.11135,-0.007 -0.2444,-0.0124 -0.40088,-0.0124 -0.92784,0 -1.57596,-0.29824 -1.82203,-0.8383 -0.17574,-0.38574 -0.34663,-0.47141 -0.93916,-0.47141 -1.00858,0 -2.819,-0.63721 -4.3139,-1.51799 -0.29128,-0.17162 -0.51994,-0.3186 -0.70967,-0.44948 -0.24167,-0.14979 -0.42043,-0.27611 -0.47177,-0.34862 -0.0106,-0.0111 -0.0188,-0.021 -0.0234,-0.0292 -0.005,-0.008 -0.006,-0.0148 -0.001,-0.019 4e-5,-7e-5 3.7e-4,6e-5 3.7e-4,0 1.3e-4,-1.2e-4 5.6e-4,-3.7e-4 7.5e-4,-3.7e-4 0.001,-7.5e-4 0.004,-5.7e-4 0.005,-0.001 7.5e-4,-10e-4 0.001,-0.003 0.002,-0.005 -0.0461,-0.0636 -0.0439,-0.10412 0.008,-0.11877 0.0872,-0.0245 0.31364,0.0227 0.68847,0.15495 0.99111,0.34968 3.43989,0.77881 5.28011,0.92527 l 1.22748,0.0979 c 0.14404,-0.0306 0.28046,-0.0847 0.43303,-0.17211 l 0.0987,-0.0746 0.57957,-0.51087 c 0.90453,-0.79692 2.13682,-1.65323 3.63311,-2.52951 0.89777,-0.52584 1.89053,-1.05871 2.96473,-1.59036 0.37153,-0.18387 0.75115,-0.37717 1.11895,-0.56897 1.1034,-0.57551 2.10162,-1.13834 2.46556,-1.39777 1.35668,-0.96709 4.50524,-2.48231 6.51782,-3.13649 1.2351,-0.40146 1.63418,-0.53523 2.1089,-1.00128 0.0431,-0.0423 0.0869,-0.0873 0.13192,-0.13557 5e-5,-7e-5 -6e-5,-3.8e-4 0,-3.8e-4 0.0901,-0.0965 0.18591,-0.20576 0.29198,-0.33144 5e-5,-7e-5 -6e-5,-3.8e-4 0,-3.8e-4 0.10609,-0.12571 0.22294,-0.26769 0.35592,-0.42974 7e-5,-8e-5 -6e-5,-3.8e-4 0,-3.8e-4 0.17757,-0.21638 0.34682,-0.42581 0.50868,-0.63073 6e-5,-8e-5 -6e-5,-3.7e-4 0,-3.7e-4 0.16185,-0.20492 0.31663,-0.40499 0.46556,-0.6026 6e-5,-8e-5 -6e-5,-3.7e-4 0,-3.7e-4 0.14892,-0.1976 0.29243,-0.39245 0.43121,-0.58688 6e-5,-9e-5 -6e-5,-3.8e-4 0,-3.8e-4 0.13884,-0.19451 0.27305,-0.38845 0.40453,-0.58395 0.52594,-0.782116 1.0043,-1.588649 1.52421,-2.552534 l 0.84341,-1.564043 c -0.0314,-0.01081 -0.0972,-0.02003 -0.16992,-0.02887 l -0.88179,-0.01134 c -1.19664,-0.01575 -2.27121,-0.529325 -3.14708,-1.422254 -0.0729,-0.07434 -0.14438,-0.151424 -0.21451,-0.230953 -6e-5,-6.9e-5 6e-5,-3.74e-4 0,-3.74e-4 -0.0701,-0.07953 -0.13924,-0.161348 -0.20647,-0.245934 -6e-5,-7.7e-5 6e-5,-3.74e-4 0,-3.74e-4 -0.0672,-0.08459 -0.13308,-0.171411 -0.19733,-0.260918 -6e-5,-8e-5 6e-5,-3.74e-4 0,-3.74e-4 -0.0643,-0.08951 -0.12701,-0.181611 -0.1882,-0.2759 -5e-5,-8.6e-5 6e-5,-1.87e-4 0,-3.74e-4 -0.0612,-0.09429 -0.12103,-0.19085 -0.17906,-0.289787 -5e-5,-9.1e-5 6e-5,-1.87e-4 0,-3.74e-4 -0.058,-0.09894 -0.11478,-0.19986 -0.16956,-0.303308 -5e-5,-9.6e-5 5e-5,-1.87e-4 0,-3.74e-4 -0.0548,-0.103452 -0.10788,-0.209008 -0.15932,-0.316828 -5e-5,-10e-5 4e-5,-1.88e-4 0,-3.75e-4 -0.0514,-0.107826 -0.10145,-0.217925 -0.14947,-0.329985 -4e-5,-1.01e-4 5e-5,-1.87e-4 0,-3.74e-4 -0.048,-0.112062 -0.0944,-0.226249 -0.13886,-0.342409 -4e-5,-1.04e-4 4e-5,-1.87e-4 0,-3.74e-4 -0.0445,-0.116163 -0.0874,-0.234345 -0.12827,-0.354467 -3e-5,-1.08e-4 4e-5,-1.87e-4 0,-3.74e-4 -0.0409,-0.120128 -0.0801,-0.241846 -0.1173,-0.365796 -3e-5,-1.13e-4 4e-5,-1.87e-4 0,-3.74e-4 -0.0372,-0.123954 -0.0725,-0.249849 -0.10597,-0.377488 -3e-5,-1.15e-4 3e-5,-1.88e-4 0,-3.75e-4 -0.0334,-0.127645 -0.0651,-0.257257 -0.0946,-0.388452 -2e-5,-1.14e-4 3e-5,-1.87e-4 0,-3.74e-4 -0.0296,-0.1312 -0.0573,-0.264073 -0.083,-0.398685 -2e-5,-1.17e-4 2e-5,-1.87e-4 0,-3.74e-4 -0.0256,-0.134617 -0.0493,-0.271024 -0.0709,-0.408917 -1e-5,-1.18e-4 2e-5,-1.87e-4 0,-3.74e-4 -0.0216,-0.137899 -0.041,-0.277382 -0.0585,-0.418418 -2e-5,-1.2e-4 1e-5,-1.87e-4 0,-3.74e-4 -0.0174,-0.14104 -0.0328,-0.28351 -0.0461,-0.427553 -1e-5,-1.19e-4 10e-6,-1.87e-4 0,-3.74e-4 -0.0132,-0.144048 -0.024,-0.28941 -0.0329,-0.436325 0,-1.2e-4 1e-5,-1.87e-4 0,-3.75e-4 -0.009,-0.146918 -0.0156,-0.295446 -0.0201,-0.445094 0,-1.2e-4 1e-5,-1.88e-4 0,-3.75e-4 -0.004,-0.149772 -0.007,-0.300763 -0.007,-0.453132 0,-0.260193 0.006,-0.512305 0.0172,-0.757903 0,-1.23e-4 -1e-5,-1.87e-4 0,-3.74e-4 0.006,-0.122732 0.0131,-0.243915 0.0219,-0.363603 1e-5,-1.22e-4 -1e-5,-1.87e-4 0,-3.74e-4 0.009,-0.119683 0.0191,-0.237794 0.0311,-0.354834 2e-5,-1.2e-4 -1e-5,-1.87e-4 0,-3.74e-4 0.0119,-0.117035 0.0254,-0.232731 0.0406,-0.347524 1e-5,-1.2e-4 -2e-5,-1.87e-4 0,-3.74e-4 0.0151,-0.114792 0.032,-0.228729 0.0504,-0.341679 2e-5,-1.18e-4 -2e-5,-1.87e-4 0,-3.75e-4 0.0184,-0.112946 0.0385,-0.225053 0.0603,-0.336561 3e-5,-1.16e-4 -2e-5,-1.87e-4 0,-3.74e-4 0.0218,-0.111507 0.0456,-0.22244 0.0709,-0.332908 2e-5,-1.14e-4 -3e-5,-1.87e-4 0,-3.74e-4 0.0253,-0.110468 0.0526,-0.22052 0.0815,-0.330348 3e-5,-1.14e-4 -3e-5,-1.87e-4 0,-3.75e-4 0.0289,-0.109829 0.0595,-0.219294 0.0921,-0.328886 3e-5,-1.11e-4 -4e-5,-1.87e-4 0,-3.75e-4 0.0326,-0.109594 0.0671,-0.21913 0.10341,-0.328888 4e-5,-1.09e-4 -3e-5,-1.87e-4 0,-3.74e-4 0.0363,-0.109761 0.0746,-0.21966 0.11475,-0.329984 4e-5,-1.06e-4 -4e-5,-1.87e-4 0,-3.74e-4 0.0402,-0.110329 0.0827,-0.220883 0.1268,-0.332176 4e-5,-1.05e-4 -4e-5,-1.87e-4 0,-3.74e-4 0.0441,-0.111297 0.0903,-0.223166 0.1385,-0.33583 4e-5,-9.9e-5 -4e-5,-1.87e-4 0,-3.75e-4 0.0964,-0.22544 0.20115,-0.454056 0.31427,-0.687374 5e-5,-1.01e-4 -5e-5,-1.87e-4 0,-3.75e-4 0.0712,-0.14684 0.14316,-0.288944 0.21597,-0.426457 5e-5,-9.8e-5 -5e-5,-1.87e-4 0,-3.74e-4 0.0728,-0.137504 0.14662,-0.270102 0.22109,-0.39832 5e-5,-9.2e-5 -6e-5,-1.87e-4 0,-3.74e-4 0.0745,-0.128211 0.15003,-0.251946 0.2262,-0.370912 5e-5,-8.8e-5 -6e-5,-1.87e-4 0,-3.74e-4 0.0762,-0.118957 0.15339,-0.233019 0.23131,-0.342774 6e-5,-8e-5 -5e-5,-3.74e-4 0,-3.74e-4 0.0779,-0.109747 0.15708,-0.214782 0.2368,-0.315367 6e-5,-7.5e-5 -6e-5,-3.74e-4 0,-3.74e-4 0.0797,-0.100579 0.16035,-0.196502 0.24192,-0.287959 6e-5,-6.9e-5 -6e-5,-3.74e-4 0,-3.74e-4 0.0816,-0.09145 0.16429,-0.178181 0.24776,-0.260552 0.75181,-0.741944 1.58126,-1.116474 2.50612,-1.138315 l 0.75535,-0.0179 -0.68811,-1.177784 c -5e-5,-8.6e-5 5e-5,-1.87e-4 0,-3.74e-4 -0.0782,-0.133775 -0.15639,-0.274373 -0.2379,-0.42938 -4e-5,-8.8e-5 5e-5,-1.87e-4 0,-3.74e-4 -0.0815,-0.155039 -0.1667,-0.324331 -0.25799,-0.515989 -4e-5,-8.8e-5 4e-5,-1.87e-4 0,-3.74e-4 -0.0913,-0.191702 -0.18921,-0.405653 -0.29673,-0.64937 -4e-5,-9.1e-5 4e-5,-1.87e-4 0,-3.74e-4 -0.10754,-0.243765 -0.22499,-0.517248 -0.3552,-0.82843 -3e-5,-9.1e-5 4e-5,-1.87e-4 0,-3.74e-4 -0.13022,-0.311234 -0.27334,-0.660215 -0.43267,-1.054267 -3e-5,-9.4e-5 4e-5,-1.87e-4 0,-3.74e-4 -0.15934,-0.394103 -0.33497,-0.833457 -0.52987,-1.325782 -3e-5,-8.6e-5 3e-5,-3.74e-4 0,-3.74e-4 -0.38988,-0.984848 -0.85766,-2.181495 -1.42847,-3.651746 -4e-5,-1.1e-4 4e-5,-1.87e-4 0,-3.74e-4 -0.12168,-0.31343 -0.24244,-0.611566 -0.3636,-0.896766 -4e-5,-1.07e-4 5e-5,-1.87e-4 0,-3.74e-4 -0.12116,-0.285186 -0.24294,-0.557382 -0.36653,-0.819294 -4e-5,-1.01e-4 5e-5,-1.87e-4 0,-3.74e-4 -0.0618,-0.130901 -0.12416,-0.259151 -0.1871,-0.385165 -5e-5,-9.7e-5 5e-5,-1.87e-4 0,-3.74e-4 -0.0629,-0.12601 -0.12665,-0.249534 -0.19112,-0.371278 -5e-5,-9.6e-5 5e-5,-1.88e-4 0,-3.75e-4 -0.0645,-0.121738 -0.12987,-0.241492 -0.19623,-0.359584 -6e-5,-9.2e-5 5e-5,-1.87e-4 0,-3.74e-4 -0.0664,-0.118089 -0.13418,-0.234293 -0.20282,-0.349352 -5e-5,-8.8e-5 6e-5,-1.87e-4 0,-3.74e-4 -0.0686,-0.115058 -0.13848,-0.228665 -0.20975,-0.341312 -6e-5,-8.6e-5 5e-5,-1.88e-4 0,-3.75e-4 -0.0713,-0.112645 -0.14424,-0.224245 -0.21853,-0.3351 -6e-5,-8.2e-5 5e-5,-3.74e-4 0,-3.74e-4 -0.0743,-0.110855 -0.15036,-0.220668 -0.22803,-0.330348 -6e-5,-8.1e-5 6e-5,-3.75e-4 0,-3.75e-4 -0.0777,-0.109682 -0.15721,-0.219027 -0.23863,-0.328155 -5e-5,-7.7e-5 6e-5,-3.74e-4 0,-3.74e-4 -0.0814,-0.10913 -0.16514,-0.217865 -0.25068,-0.327059 -6e-5,-7.5e-5 6e-5,-3.74e-4 0,-3.74e-4 -0.0856,-0.109197 -0.17344,-0.21864 -0.26348,-0.328522 -5e-5,-6.9e-5 6e-5,-3.74e-4 0,-3.74e-4 -0.18013,-0.219843 -0.36976,-0.441349 -0.57007,-0.667642 -6e-5,-7.1e-5 7e-5,-3.74e-4 0,-3.74e-4 -0.11212,-0.126663 -0.21854,-0.244155 -0.31902,-0.353006 -6e-5,-6.9e-5 7e-5,-3.74e-4 0,-3.74e-4 -0.10046,-0.108834 -0.19517,-0.208781 -0.28467,-0.300384 -0.53731,-0.549901 -0.88327,-0.794316 -1.11091,-0.795908 -0.39692,-0.0024 -0.7859,-0.155538 -0.99616,-0.355563 -0.0219,-0.01725 -0.0408,-0.0352 -0.0556,-0.05408 -6e-5,-7.6e-5 7e-5,-3.74e-4 0,-3.74e-4 -0.0165,-0.01952 -0.0316,-0.03911 -0.0446,-0.0592 -6e-5,-9.4e-5 6e-5,-1.87e-4 0,-3.75e-4 -0.0129,-0.02008 -0.0239,-0.04053 -0.0329,-0.06103 -4e-5,-1.08e-4 5e-5,-1.87e-4 0,-3.74e-4 -0.009,-0.02049 -0.0161,-0.041 -0.0208,-0.06176 -2e-5,-1.2e-4 3e-5,-1.87e-4 0,-3.74e-4 -0.005,-0.02087 -0.007,-0.04187 -0.007,-0.06285 0,-0.0151 0.003,-0.03097 0.007,-0.04751 3e-5,-1.01e-4 -3e-5,-1.87e-4 0,-3.74e-4 0.005,-0.01656 0.0121,-0.03393 0.0216,-0.05189 4e-5,-7.5e-5 -4e-5,-3.74e-4 0,-3.74e-4 0.019,-0.03608 0.0473,-0.07446 0.0844,-0.115844 0.52115,-0.580639 2.78873,-1.663905 5.68683,-2.689932 8.7787,-3.10797 13.78138,-5.529159 19.92618,-9.644436 1.24022,-0.830596 2.34783,-1.586315 2.75937,-1.879775 0.10073,-0.09148 0.1938,-0.183154 0.28065,-0.276629 0.0434,-0.04667 0.0854,-0.09356 0.12571,-0.141422 6e-5,-7.3e-5 -6e-5,-3.74e-4 0,-3.74e-4 0.0403,-0.04786 0.0794,-0.09628 0.11693,-0.145806 5e-5,-8.4e-5 -5e-5,-3.74e-4 0,-3.74e-4 0.0511,-0.08438 0.10406,-0.178714 0.1586,-0.282843 5e-5,-8.8e-5 -5e-5,-1.87e-4 0,-3.74e-4 0.0546,-0.104159 0.11087,-0.217881 0.16846,-0.340946 5e-5,-9.5e-5 -4e-5,-1.87e-4 0,-3.74e-4 0.0576,-0.123093 0.11697,-0.255693 0.17724,-0.396857 4e-5,-9.9e-5 -4e-5,-1.87e-4 0,-3.74e-4 0.0603,-0.141188 0.12197,-0.291061 0.18454,-0.44948 4e-5,-1.01e-4 -4e-5,-1.87e-4 0,-3.75e-4 0.0626,-0.15844 0.12626,-0.325073 0.19076,-0.499909 3e-5,-1.03e-4 -4e-5,-1.87e-4 0,-3.74e-4 0.0645,-0.174853 0.12981,-0.357738 0.19587,-0.548146 3e-5,-1.05e-4 -4e-5,-1.87e-4 0,-3.74e-4 0.066,-0.190424 0.13301,-0.38832 0.20025,-0.593458 4e-5,-1.09e-4 -3e-5,-1.88e-4 0,-3.75e-4 0.0672,-0.205153 0.13513,-0.41755 0.20318,-0.636579 4e-5,-1.17e-4 -4e-5,-1.87e-4 0,-3.74e-4 0.12513,-0.402763 0.23978,-0.786785 0.3446,-1.158415 3e-5,-1.16e-4 -3e-5,-1.87e-4 0,-3.74e-4 0.0524,-0.185751 0.10252,-0.368294 0.15019,-0.548511 3e-5,-1.16e-4 -3e-5,-1.87e-4 0,-3.74e-4 0.0477,-0.180211 0.0931,-0.358082 0.13631,-0.534259 3e-5,-1.16e-4 -3e-5,-1.87e-4 0,-3.74e-4 0.0432,-0.176172 0.0842,-0.350759 0.12315,-0.524392 2e-5,-1.18e-4 -3e-5,-1.87e-4 0,-3.74e-4 0.0389,-0.173631 0.0758,-0.346319 0.11072,-0.51891 3e-5,-1.18e-4 -2e-5,-1.87e-4 0,-3.74e-4 0.0349,-0.172589 0.0679,-0.345133 0.099,-0.51818 2e-5,-1.18e-4 -3e-5,-1.87e-4 0,-3.74e-4 0.0311,-0.173048 0.0605,-0.346469 0.0881,-0.52147 2e-5,-1.17e-4 -1e-5,-1.87e-4 0,-3.74e-4 0.0276,-0.175004 0.0536,-0.351419 0.0778,-0.529875 2e-5,-1.18e-4 -1e-5,-1.87e-4 0,-3.75e-4 0.0243,-0.17846 0.0471,-0.359255 0.0683,-0.542664 1e-5,-1.17e-4 -2e-5,-1.87e-4 0,-3.74e-4 0.0212,-0.183416 0.0408,-0.369613 0.0592,-0.559475 1e-5,-1.17e-4 -2e-5,-1.87e-4 0,-3.74e-4 0.0184,-0.189869 0.0354,-0.383221 0.0512,-0.581034 1e-5,-1.16e-4 -1e-5,-1.87e-4 0,-3.74e-4 0.0316,-0.395768 0.0585,-0.808835 0.0811,-1.245387 1e-5,-1.16e-4 0,-1.87e-4 0,-3.74e-4 0.0226,-0.43658 0.0411,-0.896727 0.0566,-1.386079 v -3.74e-4 l 0.0775,-2.439248 v -3.74e-4 l 0.0278,-0.996163 c -0.0514,-0.06023 -0.12047,-0.10226 -0.21341,-0.127902 l -0.50649,0.0687 c -10.95102,1.486474 -21.03116,6.279661 -28.29637,13.431756 -0.23429,0.230654 -0.46594,0.463541 -0.69431,0.699069 -6e-5,6.2e-5 6e-5,3.74e-4 0,3.74e-4 -0.29083,0.299928 -0.5657,0.588973 -0.82661,0.870819 -6e-5,6.2e-5 6e-5,3.74e-4 0,3.74e-4 -0.2609,0.281837 -0.50831,0.555982 -0.74475,0.826971 -5e-5,6.5e-5 6e-5,3.74e-4 0,3.74e-4 -0.23642,0.270979 -0.46193,0.538409 -0.67933,0.805774 -6e-5,7.1e-5 6e-5,3.74e-4 0,3.74e-4 -0.10867,0.133644 -0.21555,0.267147 -0.32048,0.401242 -6e-5,7.5e-5 6e-5,3.74e-4 0,3.74e-4 -0.10493,0.134093 -0.20837,0.268351 -0.31025,0.4038 -6e-5,7.7e-5 6e-5,3.75e-4 0,3.75e-4 -0.10188,0.135449 -0.20271,0.271939 -0.30221,0.409648 -6e-5,7.9e-5 5e-5,3.75e-4 0,3.75e-4 -0.0995,0.137709 -0.1982,0.27645 -0.296,0.417321 -6e-5,8.3e-5 6e-5,3.74e-4 0,3.74e-4 -0.19567,0.28183 -0.38879,0.570911 -0.58177,0.870821 -5e-5,8.7e-5 6e-5,1.88e-4 0,3.75e-4 -0.19297,0.29992 -0.38604,0.610635 -0.58176,0.935868 -6e-5,9.2e-5 5e-5,1.87e-4 0,3.74e-4 -0.19573,0.325244 -0.3943,0.664684 -0.59821,1.022474 -6e-5,9.5e-5 5e-5,1.87e-4 0,3.74e-4 l -1.18911,2.08551 v 3.74e-4 c -0.005,0.01721 -0.015,0.0423 -0.015,0.05189 0,6.4e-5 0,3.75e-4 0,3.75e-4 1e-4,0.0098 0.009,0.02779 0.0249,0.05299 9e-5,1.43e-4 -9e-5,1.87e-4 0,3.75e-4 0.0162,0.0253 0.0397,0.05761 0.0694,0.09574 8e-5,9.5e-5 -7e-5,1.87e-4 0,3.74e-4 0.0596,0.07642 0.14437,0.175522 0.24374,0.287227 l 0.47433,0.418418 c 0.14687,0.129462 0.27173,0.247377 0.37493,0.353738 0.0515,0.05307 0.0978,0.103155 0.1385,0.150557 6e-5,6.2e-5 -5e-5,3.74e-4 0,3.74e-4 0.0406,0.04737 0.0761,0.09199 0.10598,0.133747 5e-5,7.1e-5 -5e-5,3.74e-4 0,3.74e-4 0.0298,0.04172 0.0543,0.08042 0.0734,0.116573 4e-5,8.3e-5 -4e-5,3.75e-4 0,3.75e-4 0.0191,0.03611 0.0329,0.06952 0.0413,0.100128 3e-5,9.6e-5 -2e-5,1.87e-4 0,3.74e-4 0.008,0.03055 0.0114,0.0582 0.009,0.08332 -1e-5,1.08e-4 2e-5,1.87e-4 0,3.74e-4 -0.002,0.02508 -0.01,0.04754 -0.0226,0.06724 -6e-5,9.6e-5 6e-5,1.87e-4 0,3.74e-4 -0.11806,0.180642 -0.94122,-0.02541 -3.50959,-0.877764 -3.69191,-1.225255 -5.28569,-1.610236 -7.80012,-1.771971 -0.62238,-0.0099 -1.38973,-0.01115 -2.38479,-0.01023 -1.22425,0.0011 -2.18283,0.01306 -2.97753,0.04129 -2.61308,0.216881 -5.27549,0.744797 -8.3563,1.638591 -4.15476,1.205367 -8.4448,3.015468 -10.556545,4.453863 -1.401091,0.954337 -3.39356,2.595946 -4.176867,3.402523 -0.06017,0.06196 -0.113525,0.118881 -0.158597,0.170291 -5.2e-5,5.8e-5 5.2e-5,3.74e-4 0,3.74e-4 -0.04503,0.05137 -0.08242,0.09723 -0.110726,0.136671 -4.5e-5,6.4e-5 4.7e-5,3.74e-4 0,3.74e-4 -0.02823,0.03936 -0.04782,0.07221 -0.05774,0.0983 -2.8e-5,7.3e-5 2.8e-5,3.74e-4 0,3.74e-4 -0.01128,0.02966 -0.02488,0.05859 -0.03983,0.08661 -5.3e-5,9.7e-5 5.2e-5,1.87e-4 0,3.74e-4 -0.01497,0.02802 -0.03173,0.05497 -0.0497,0.08076 -5.8e-5,8.4e-5 6e-5,1.87e-4 0,3.74e-4 -0.01798,0.02579 -0.03741,0.05011 -0.05774,0.07309 -6.3e-5,7.2e-5 6.2e-5,3.75e-4 0,3.75e-4 -0.02034,0.02297 -0.04193,0.04438 -0.06395,0.06395 -0.08838,0.07859 -0.187338,0.127535 -0.276265,0.127535 -0.177736,0 -0.598352,0.266651 -0.934405,0.592361 -0.358187,0.347155 -0.583712,0.466215 -0.678603,0.370913 -0.03971,3.75e-4 -0.07237,-0.0084 -0.09538,-0.02741 -0.01141,-0.0094 -0.02053,-0.02113 -0.02668,-0.03581 -4.1e-5,-9.9e-5 4.1e-5,-1.87e-4 0,-3.74e-4 -0.0062,-0.01482 -0.0095,-0.03241 -0.0095,-0.05299 0,-0.01038 0.01334,-0.05663 0.03618,-0.128267 2.6e-5,-8.2e-5 -2.6e-5,-3.74e-4 0,-3.74e-4 0.02291,-0.07187 0.05564,-0.169408 0.09428,-0.282843 2.5e-5,-1.05e-4 -2.4e-5,-1.87e-4 0,-3.74e-4 0.01598,-0.06805 0.03568,-0.141843 0.0592,-0.221817 0.02355,-0.08006 0.05095,-0.166194 0.08222,-0.258359 0.03119,-0.09195 0.0662,-0.18966 0.105244,-0.293806 3.7e-5,-9.9e-5 -3.7e-5,-1.87e-4 0,-3.74e-4 0.03906,-0.104176 0.08229,-0.214556 0.129361,-0.331082 4.7e-5,-1.16e-4 -4.7e-5,-1.87e-4 0,-3.74e-4 0.05638,-0.139552 0.10466,-0.26143 0.149462,-0.378586 3.7e-5,-1.11e-4 -3.8e-5,-1.87e-4 0,-3.74e-4 0.05291,-0.155681 0.100912,-0.309058 0.144346,-0.463366 3.1e-5,-1.14e-4 -3.4e-5,-1.87e-4 0,-3.74e-4 0.04342,-0.154305 0.08244,-0.309494 0.116937,-0.468117 1.7e-5,-1.14e-4 -1.8e-5,-1.87e-4 0,-3.74e-4 0.01181,-0.07301 0.02214,-0.148917 0.03106,-0.229125 1.3e-5,-1.15e-4 -1.3e-5,-1.88e-4 0,-3.75e-4 0.0089,-0.08023 0.01633,-0.164655 0.02266,-0.25507 7e-6,-1.06e-4 -8e-6,-1.87e-4 0,-3.74e-4 0.01265,-0.181014 0.02049,-0.385537 0.02448,-0.62525 2e-6,-1.05e-4 -2e-6,-1.87e-4 0,-3.74e-4 0.004,-0.23979 0.0042,-0.515173 0.0019,-0.837566 0,-1.05e-4 0,-1.87e-4 0,-3.74e-4 -0.0023,-0.322471 -0.0072,-0.692159 -0.01353,-1.121141 -10e-7,-1.2e-4 2e-6,-1.87e-4 0,-3.74e-4 -0.0052,-0.354907 -0.01311,-0.713962 -0.02339,-1.076559 -2e-6,-1.19e-4 4e-6,-1.87e-4 0,-3.74e-4 -0.01029,-0.362602 -0.02283,-0.728709 -0.038,-1.097753 -6e-6,-1.22e-4 6e-6,-1.87e-4 0,-3.74e-4 -0.01517,-0.36905 -0.03305,-0.741048 -0.05299,-1.115294 -7e-6,-1.22e-4 6e-6,-1.87e-4 0,-3.74e-4 -0.01994,-0.37425 -0.04231,-0.750617 -0.06687,-1.128816 -8e-6,-1.2e-4 9e-6,-1.87e-4 0,-3.74e-4 -0.02456,-0.378201 -0.05134,-0.758142 -0.08039,-1.139046 -1e-5,-1.22e-4 9e-6,-1.87e-4 0,-3.74e-4 -0.02905,-0.380907 -0.06015,-0.762896 -0.09355,-1.14526 -1.2e-5,-1.2e-4 9e-6,-1.87e-4 0,-3.74e-4 -0.03341,-0.382364 -0.06909,-0.765243 -0.106708,-1.147818 -1.1e-5,-1.2e-4 1.4e-5,-1.87e-4 0,-3.74e-4 -0.03762,-0.382575 -0.07743,-0.764816 -0.119128,-1.146355 -1.5e-5,-1.21e-4 1.3e-5,-1.87e-4 0,-3.74e-4 -0.0417,-0.381537 -0.08555,-0.762348 -0.131191,-1.141604 -1.3e-5,-1.19e-4 1.5e-5,-1.87e-4 0,-3.74e-4 -0.04564,-0.379254 -0.09307,-0.757109 -0.142518,-1.132834 -1.5e-5,-1.2e-4 1.7e-5,-1.87e-4 0,-3.75e-4 -0.04945,-0.375723 -0.101092,-0.749097 -0.15421,-1.120044 -1.9e-5,-1.2e-4 1.7e-5,-1.87e-4 0,-3.74e-4 -0.05312,-0.370945 -0.107792,-0.739409 -0.164445,-1.104332 -1.8e-5,-1.19e-4 1.9e-5,-1.87e-4 0,-3.74e-4 -0.05665,-0.364919 -0.115358,-0.726582 -0.175406,-1.084231 -2.1e-5,-1.2e-4 2e-5,-1.87e-4 0,-3.75e-4 -0.06005,-0.357644 -0.1216,-0.711348 -0.184908,-1.060477 -2.2e-5,-1.19e-4 2.1e-5,-1.87e-4 0,-3.74e-4 -0.06331,-0.349124 -0.128343,-0.693343 -0.194775,-1.032706 -2.2e-5,-1.18e-4 2.4e-5,-1.87e-4 0,-3.74e-4 -0.06643,-0.339357 -0.134491,-0.67366 -0.203909,-1.00201 -2.6e-5,-1.22e-4 2.6e-5,-1.87e-4 0,-3.74e-4 -0.09223,-0.436245 -0.181944,-0.850233 -0.270418,-1.247947 -2.8e-5,-1.19e-4 2.6e-5,-1.87e-4 0,-3.74e-4 -0.08847,-0.397695 -0.175742,-0.779205 -0.263842,-1.15074 -2.8e-5,-1.18e-4 2.8e-5,-1.87e-4 0,-3.74e-4 -0.0881,-0.371523 -0.177113,-0.732713 -0.268225,-1.090445 -3e-5,-1.14e-4 2.8e-5,-1.87e-4 0,-3.74e-4 -0.09111,-0.357729 -0.184599,-0.711848 -0.282113,-1.068152 -3e-5,-1.12e-4 3.1e-5,-1.87e-4 0,-3.74e-4 -0.09752,-0.356311 -0.19929,-0.714782 -0.306596,-1.082039 -3.2e-5,-1.09e-4 3.2e-5,-1.87e-4 0,-3.74e-4 -0.10731,-0.367271 -0.220462,-0.743344 -0.340946,-1.133931 -3.3e-5,-1.07e-4 3.2e-5,-1.87e-4 0,-3.74e-4 -0.12049,-0.390606 -0.248478,-0.795706 -0.385529,-1.221999 -3.4e-5,-1.05e-4 3.4e-5,-1.87e-4 0,-3.75e-4 -0.137061,-0.426315 -0.283336,-0.873693 -0.440345,-1.348072 v -3.75e-4 l -0.89008,-2.693774 v -3.74e-4 l -0.143249,-0.329619 c -9.36e-4,0 -0.0011,-3.74e-4 -0.0015,-3.74e-4 z M 133.3368,68.681501 c 1.20403,-0.01663 2.48127,0.445099 3.42664,1.390462 2.30519,2.305185 2.68162,5.807942 0.80723,7.512883 -1.01276,0.921205 -2.93771,1.404978 -4.08734,1.027226 -3.67576,-1.207815 -5.21556,-5.361293 -3.1332,-8.451309 0.65196,-0.96743 1.78263,-1.462644 2.98667,-1.479262 z m 0.0665,1.687192 c -0.5633,0.006 -1.14962,0.322017 -1.22163,0.817468 -7.5e-4,0.01534 -0.002,0.0305 -0.003,0.04641 0.005,0.08977 0.02,0.177102 0.045,0.261648 0.18102,0.414764 0.82578,0.934293 1.34734,1.06523 0.0853,0.0061 0.16936,0.0038 0.25105,-0.0091 0.10758,-0.05693 0.26364,-0.177039 0.40928,-0.322676 0.24989,-0.249885 0.36849,-0.498839 0.35739,-0.766673 -7.5e-4,-0.02114 -0.004,-0.04207 -0.006,-0.06322 -0.0226,-0.195314 -0.1115,-0.400964 -0.26859,-0.62525 -0.19924,-0.284453 -0.55023,-0.407338 -0.91102,-0.403802 z m -34.313173,6.381876 c 1.043653,-0.0224 2.098403,0.278522 3.011513,0.964005 2.3518,1.765529 2.46182,5.624962 0.2167,7.5962 -1.51772,1.33257 -3.768265,1.85025 -5.402158,1.242829 -2.240183,-0.832826 -3.472781,-3.188375 -2.932212,-5.603874 0.567233,-2.534691 2.810138,-4.149872 5.106157,-4.19916 z m 20.083683,0.842682 c 0.23023,0.01168 0.39448,0.07748 0.49699,0.206104 5e-5,6.7e-5 -6e-5,3.74e-4 0,3.74e-4 0.0614,0.07714 0.1008,0.17683 0.11876,0.300749 0.007,0.03304 0.01,0.07054 0.008,0.11438 0.0186,0.439083 -0.17375,1.126982 -0.55874,2.133016 -0.2245,0.586654 -0.38282,0.906982 -0.67349,0.983009 -0.0643,0.03691 -0.12922,0.05474 -0.19477,0.05262 -0.0708,-0.0025 -0.20518,-0.0513 -0.36032,-0.118766 -0.33408,-0.11644 -0.78339,-0.350321 -1.42189,-0.699433 -0.80282,-0.438971 -1.54237,-0.880945 -1.64334,-0.981912 -0.52741,-0.527414 0.56163,-1.153507 3.19094,-1.834826 0.34566,-0.0896 0.63481,-0.143485 0.86973,-0.154941 0.0596,-0.0029 0.11584,-0.003 0.16846,-3.75e-4 z m -20.44619,1.004934 c -0.348243,0.01403 -0.699829,0.111113 -0.873379,0.28467 -0.0351,0.03513 -0.06608,0.0713 -0.09465,0.107436 -0.08956,0.147067 -0.14799,0.323841 -0.167367,0.527316 -0.0099,0.106376 -0.011,0.204132 -0.0036,0.294902 0.201122,0.67941 1.168249,1.16441 1.874657,0.525124 0.139422,-0.12617 0.235124,-0.315949 0.287594,-0.52147 0.0261,-0.174396 0.03477,-0.361912 0.019,-0.521834 -0.0088,-0.08973 -0.02202,-0.164609 -0.038,-0.232779 -0.03559,-0.09678 -0.08523,-0.182432 -0.150922,-0.248127 -0.160121,-0.160084 -0.505029,-0.22924 -0.853281,-0.215238 z m 31.96054,3.54577 v 3.75e-4 c 0.028,0 0.0542,0.02334 0.0778,0.06103 0.21713,0.01521 0.30004,0.229387 0.19697,0.642428 -0.20785,0.832911 -0.94067,1.633726 -2.00365,2.190389 l -0.99544,0.521469 -0.0318,3.016628 c -0.0589,5.566401 -0.98012,12.227306 -2.04349,15.395206 -0.1673,0.54597 -0.3231,0.91879 -0.52,1.23297 -0.0209,0.0369 -0.0416,0.0766 -0.0625,0.11036 -0.47237,0.76404 -1.12743,1.27867 -1.89256,1.53005 -0.31006,0.11352 -0.634,0.17073 -0.97753,0.17285 -0.59162,0.0229 -1.22301,-0.0858 -1.8721,-0.33985 -2.1078,-0.82489 -4.90351,-3.32228 -6.6512,-5.94153 -1.45996,-2.188007 -2.92308,-5.39172 -4.12169,-9.025029 l -1.02868,-3.117486 -0.45679,-0.116938 -0.30696,-0.04933 c -0.41171,-0.06583 -0.99591,-0.247758 -1.29838,-0.404164 -0.19927,-0.103052 -0.39062,-0.259069 -0.56239,-0.441806 -0.0572,-0.06082 -0.1125,-0.124622 -0.16481,-0.19039 -7e-5,-6.9e-5 6e-5,-3.74e-4 0,-3.74e-4 -0.0555,-0.05915 -0.1061,-0.119802 -0.15129,-0.18235 -6e-5,-8.6e-5 6e-5,-3.74e-4 0,-3.74e-4 -0.0452,-0.06254 -0.0852,-0.126738 -0.1195,-0.192947 -5e-5,-1.05e-4 6e-5,-1.87e-4 0,-3.74e-4 -0.0411,-0.07953 -0.0786,-0.154682 -0.11182,-0.225836 -5e-5,-1.08e-4 5e-5,-1.87e-4 0,-3.74e-4 -0.0332,-0.07113 -0.0625,-0.138176 -0.0877,-0.200987 -5e-5,-1.16e-4 5e-5,-1.87e-4 0,-3.74e-4 -0.0252,-0.06278 -0.0465,-0.121249 -0.0636,-0.175774 -4e-5,-1.23e-4 4e-5,-1.87e-4 0,-3.74e-4 -0.0171,-0.05448 -0.0302,-0.105 -0.0391,-0.151287 -2e-5,-1.33e-4 3e-5,-1.87e-4 0,-3.74e-4 -0.009,-0.04624 -0.0136,-0.08833 -0.0142,-0.126439 -1e-5,-1.35e-4 0,-1.87e-4 0,-3.74e-4 -5.7e-4,-0.03806 0.003,-0.07197 0.0106,-0.101955 2e-5,-1.18e-4 -3e-5,-1.87e-4 0,-3.74e-4 0.008,-0.02995 0.0197,-0.05553 0.0358,-0.07747 0.0162,-0.02211 0.0365,-0.04042 0.0614,-0.05445 0.0119,-0.01819 0.025,-0.03517 0.0398,-0.0508 0.015,-0.01577 0.0316,-0.03016 0.0508,-0.04202 0.0912,-0.05636 0.74372,0.16009 1.45002,0.481272 0.66206,0.301061 1.37496,0.503118 2.11256,0.610634 0.34397,0.0095 0.7677,0.01018 1.32322,0.0088 0.58268,-0.0013 1.02246,-0.0067 1.38754,-0.02229 1.81506,-0.268759 3.5948,-1.045612 4.98557,-2.272611 0.46941,-0.41415 1.00851,-1.0966 1.19788,-1.516536 0.2318,-0.514041 0.4719,-0.76139 0.80467,-0.756441 0.003,-7.48e-4 0.006,-0.0022 0.009,-0.0022 0.0126,1.42e-4 0.03,0.0045 0.0457,0.0073 0.24757,0.02308 0.54467,0.175157 0.92491,0.45569 0.91393,0.674276 2.33909,1.159644 4.12095,1.403619 0.13979,0.01916 0.27567,0.03469 0.41038,0.04933 0.31779,0.01817 0.6461,0.02797 0.98776,0.02741 0.54986,-9.35e-4 0.99953,-0.01252 1.38754,-0.04385 1.15881,-0.179731 2.109,-0.645934 2.9841,-1.436508 0.0647,-0.05847 0.12767,-0.112292 0.18856,-0.161885 0.1827,-0.148778 0.34757,-0.258183 0.49151,-0.33035 0.14012,-0.09573 0.25231,-0.162981 0.29198,-0.162981 z m -63.492427,9.779647 -0.392472,0.129363 -3.74e-4,3.74e-4 0.392472,-0.129363 c 2.06e-4,-1.14e-4 1.64e-4,-1.87e-4 3.74e-4,-3.74e-4 z m 15.794996,0.610269 c 0.159785,0.108325 0.314706,0.218205 0.464826,0.328886 l 1.144164,0.843413 v -7.48e-4 l -1.143797,-0.843048 c -0.1502,-0.110741 -0.30532,-0.220142 -0.465193,-0.328522 z M 70.353051,103.59691 v 3.7e-4 c -0.04899,-0.004 -0.122272,0.0237 -0.217066,0.0702 -0.04129,0.0337 -0.07199,0.0568 -0.126438,0.10268 -0.226103,0.19036 -0.437041,0.36035 -0.487119,0.39357 l 0.32231,0.0544 c 0.03287,7.5e-4 0.05077,0.004 0.08697,0.004 0.385991,0 0.498713,-0.0913 0.498812,-0.40307 0,-0.0806 -0.0023,-0.13435 -0.0058,-0.18272 -0.02022,-0.0211 -0.04256,-0.0363 -0.07162,-0.0391 z m 78.175049,1.57318 c -0.38649,0.003 -0.86317,0.0175 -1.47999,0.0387 -3.06293,0.1053 -4.24909,0.40648 -8.98082,2.27992 -1.64648,0.65189 -3.33039,1.28921 -3.742,1.41641 -0.88132,0.27236 -2.70345,1.31279 -4.36909,2.49443 -1.57403,1.11665 -4.31544,3.35685 -4.32414,3.53371 -0.004,0.0772 0.20153,0.14032 0.45643,0.14032 0.2825,0 0.57811,0.17511 0.75717,0.44839 0.27644,0.4219 0.25935,0.51412 -0.29235,1.5666 -0.32241,0.61506 -0.55787,1.30565 -0.52329,1.5348 l 0.0629,0.41659 0.49735,-0.39283 c 0.2735,-0.21609 0.66415,-0.39284 0.86826,-0.39284 0.17051,0 0.26311,0.0325 0.31318,0.27517 0.0392,0.11731 0.0543,0.27475 0.0435,0.47067 0.0111,0.27129 0.0146,0.63045 0.0146,1.13612 0,0.58958 0.015,1.11094 0.0373,1.4789 0.0595,0.26566 0.13441,0.45945 0.21853,0.5328 0.12313,-0.0203 0.28398,-0.10993 0.43267,-0.22949 l 0.167,-0.17431 c 0.0303,-0.0316 0.0554,-0.0524 0.0844,-0.0815 0.0576,-0.0758 0.10611,-0.1532 0.12973,-0.22767 0.074,-0.23307 0.28311,-0.3742 0.55399,-0.3742 0.49721,0 0.66198,0.29131 0.53646,0.94793 -0.0989,0.51731 0.16161,1.30685 0.41147,1.3901 0.0452,-7.5e-4 0.0868,-0.0117 0.12607,-0.0289 0.11915,-0.10457 0.14553,-0.45842 0.0716,-1.01553 -0.0214,-0.16063 -0.0367,-0.30245 -0.0409,-0.42938 -0.0409,-0.0762 -0.0457,-0.14189 -0.01,-0.21232 -0.004,-0.0826 0.0187,-0.15521 0.068,-0.21999 0.0777,-0.19771 0.24509,-0.3293 0.56057,-0.41805 0.0526,-0.0148 0.10922,-0.0284 0.17029,-0.0409 0.54964,-0.11258 1.45424,-0.13716 2.90992,-0.15092 3.55929,-0.0337 3.94194,0.0725 8.43523,2.34131 5.44149,2.74755 7.10934,3.27881 10.06249,3.20556 1.65108,-0.041 2.12998,-0.12519 3.00201,-0.52915 h 3.7e-4 c 0.84402,-0.39097 1.57543,-0.91686 2.18601,-1.55965 0.59809,-0.66855 1.10831,-1.47002 1.49388,-2.35228 0.43064,-1.07109 0.66164,-2.29496 0.67458,-3.64078 0.0491,-5.10391 -4.06331,-10.81079 -9.19094,-12.75425 -0.88513,-0.33548 -1.23302,-0.43209 -2.39247,-0.42353 z m -77.764305,1.16243 c -0.04409,0.004 -0.09236,0.012 -0.146172,0.023 -0.677974,0.13928 -3.225723,0.43885 -6.548512,0.76996 -8.956956,0.89257 -20.723026,3.01685 -29.094101,5.2527 -5.054998,1.35015 -15.076387,4.39053 -15.410197,4.67531 -0.03735,0.0319 0.479987,0.67286 1.149279,1.42445 0.669286,0.7516 2.130863,2.41575 3.248309,3.69779 1.117447,1.28204 3.21264,3.6395 4.655948,5.23881 3.186379,3.53075 7.342002,8.27651 7.853463,8.96876 0.05275,0.0714 0.08964,0.13398 0.127901,0.18893 0.02841,0.0307 0.07247,0.0799 0.09757,0.1067 0.326845,0.26664 1.229867,0.0198 7.632743,-1.49717 3.190064,-0.75579 7.063033,-1.6352 8.606615,-1.95395 1.543576,-0.31876 4.206267,-0.91127 5.917048,-1.31701 2.201615,-0.52216 3.505443,-0.7944 4.337293,-0.87009 0.215893,-0.0383 0.373953,-0.0623 0.431939,-0.0625 0.117288,-3.8e-4 0.230817,0.0199 0.34387,0.0592 0.23307,0.0306 0.406009,0.0955 0.55253,0.19148 0.289034,0.18939 0.948708,1.29879 1.767221,2.97205 1.624658,3.32122 3.498302,6.43063 5.918509,9.8213 l 1.649554,2.31099 c 0.138098,0.14195 0.246531,0.22385 0.341677,0.26274 0.0028,-1.4e-4 0.0048,-5.6e-4 0.0077,-7.5e-4 l 0.94281,-0.31866 c 0.590484,-0.19941 1.578718,-0.68864 2.195871,-1.08752 1.556149,-1.00578 2.249021,-1.34475 2.529873,-1.23698 0.346357,0.13291 0.43841,0.8699 0.657776,5.26731 0.176858,3.54526 0.378159,5.88033 0.670199,7.77527 l 0.08843,0.57226 c 0.0245,0.0341 0.05193,0.0621 0.08149,0.0826 l 2.588344,-0.41075 c 1.33124,-0.21109 2.643896,-0.38414 3.146354,-0.41915 0.351369,-0.0735 0.617506,-0.13967 0.779097,-0.1944 0.167667,-0.19388 0.313897,-0.60166 0.623791,-1.47561 l 0.543029,-1.53152 c -0.06758,-0.0617 -0.23491,-0.12847 -0.495524,-0.19551 l -0.983007,-0.14946 c -0.989876,-0.15044 -1.399443,-0.2563 -1.733967,-0.5105 -0.0081,-0.005 -0.02034,-0.01 -0.02741,-0.0143 -0.249647,-0.1595 -0.422944,-0.29548 -0.509776,-0.55509 -0.162227,-0.2198 -0.276996,-0.4279 -0.276996,-0.52695 0,-0.14307 0.684186,-2.98334 1.520555,-6.31171 0.836376,-3.32836 1.530991,-6.21777 1.543577,-6.42098 0.02136,-0.34472 -0.267136,-0.4027 -4.309884,-0.86388 -3.680699,-0.41986 -4.419996,-0.5561 -4.91175,-0.90626 -0.318387,-0.22671 -0.665419,-0.57445 -0.771422,-0.77252 -0.425487,-0.79502 -1.79754,-13.58849 -1.994885,-18.60077 l -0.11438,-2.90079 c -0.03274,-0.0774 -0.07501,-0.16235 -0.125709,-0.25397 l -0.906996,-1.22675 c -1.424444,-1.92613 -2.844086,-4.38321 -3.40033,-5.88562 -0.376898,-1.01798 -0.480715,-1.21624 -0.78933,-1.19057 z m 44.926735,9.23954 c 0.28241,-0.0201 1.77918,0.38369 5.86516,1.5761 0.81988,0.23927 1.26293,0.46519 1.26293,0.64389 0,0.0775 -0.0755,0.13674 -0.20392,0.18016 -0.12059,0.0585 -0.32321,0.0857 -0.58944,0.0822 -0.6636,0.022 -1.63371,-0.0936 -2.4809,-0.33912 -1.69682,-0.49168 -3.40113,-1.32949 -3.84689,-1.81655 -0.005,-0.005 -0.0115,-0.0111 -0.0157,-0.0161 -0.003,-0.004 -0.005,-0.007 -0.009,-0.0113 -0.0421,-0.0502 -0.0749,-0.0977 -0.0866,-0.13886 -0.0595,-0.0586 -0.0598,-0.083 0.001,-0.0837 0.0103,-0.0258 0.0306,-0.0485 0.0621,-0.0672 0.008,-0.005 0.0217,-0.008 0.0406,-0.01 z m 2.52476,2.78531 c 0.18348,-0.0137 0.46272,0.0357 0.81783,0.15604 0.16728,0.05 0.33822,0.11743 0.50064,0.19587 0.44605,0.19726 0.74085,0.37805 0.88069,0.53097 0.0199,0.0218 0.0368,0.043 0.0504,0.0636 5e-5,8e-5 -5e-5,3.8e-4 0,3.8e-4 0.0136,0.0206 0.0242,0.0406 0.0314,0.0599 3e-5,9e-5 -4e-5,1.9e-4 0,3.7e-4 0.007,0.0193 0.0115,0.0379 0.0124,0.0559 0,1.2e-4 -1e-5,1.9e-4 0,3.8e-4 9.3e-4,0.018 -0.001,0.0352 -0.007,0.0519 -4e-5,1.1e-4 3e-5,1.9e-4 0,3.7e-4 -0.005,0.0167 -0.0141,0.0326 -0.0259,0.0479 -0.0475,0.0615 -0.14666,0.11137 -0.29819,0.14726 -0.12439,0.0754 -0.30191,0.0938 -0.5138,0.0574 -0.0418,-0.005 -0.0871,-0.0162 -0.13557,-0.0329 -0.0139,-0.003 -0.0271,-0.006 -0.0413,-0.01 -0.0123,-0.003 -0.0248,-0.006 -0.0373,-0.009 -0.005,-0.001 -0.01,-0.003 -0.0146,-0.004 -0.23887,-0.0598 -0.49167,-0.17277 -0.72428,-0.33035 -0.83842,-0.56801 -0.93349,-0.94888 -0.49553,-0.98155 z m -8.56057,47.60753 c 0.14385,0 1.68781,0.46238 3.43066,1.02759 4.55879,1.47845 5.83876,1.67965 10.66874,1.67258 3.68779,-0.005 4.21735,-0.0488 6.36141,-0.52147 2.93986,-0.64806 2.90005,-0.64368 2.90005,-0.30952 0,0.34293 -2.77144,1.50577 -4.87447,2.04531 -2.78611,0.71478 -5.97671,0.90688 -9.11164,0.54815 -1.82395,-0.20871 -3.94446,-0.74754 -5.7548,-1.3996 -0.90722,-0.30346 -1.68815,-0.6277 -2.24338,-0.9461 -0.0378,-0.0217 -0.0728,-0.0433 -0.10963,-0.065 -0.57913,-0.30396 -1.0534,-0.60957 -1.36195,-0.90043 -0.5208,-0.49093 -0.58949,-0.64185 -0.39796,-0.87264 0.019,-0.023 0.0435,-0.0433 0.0662,-0.0647 0.0343,-0.0496 0.088,-0.0906 0.16042,-0.12279 0.0939,-0.0554 0.19063,-0.0914 0.2664,-0.0914 z m 0.33912,3.2125 c 0.0477,-0.006 0.12024,0.0151 0.22328,0.0581 1.36088,0.5678 3.19101,1.111 5.42152,1.60899 2.6504,0.59175 3.01428,0.73369 2.79335,1.09118 -0.15842,0.25631 -2.70427,0.23004 -3.83044,-0.0395 -0.61572,-0.14737 -1.66804,-0.61017 -2.61941,-1.09994 -0.0459,-0.0231 -0.0918,-0.0454 -0.13776,-0.0691 -0.0322,-0.0168 -0.062,-0.0332 -0.0939,-0.0501 -0.28525,-0.14881 -0.57177,-0.30629 -0.85949,-0.47652 -0.24175,-0.14303 -0.43367,-0.26586 -0.58761,-0.37274 -0.24487,-0.15085 -0.39467,-0.26833 -0.39467,-0.32816 0,-0.005 3.8e-4,-0.008 3.8e-4,-0.0124 -0.008,-0.0127 -0.0137,-0.0245 -0.0175,-0.0354 -0.004,-0.0109 -0.006,-0.0209 -0.005,-0.03 5.6e-4,-0.009 0.003,-0.0171 0.008,-0.0241 0.005,-0.007 0.0122,-0.0129 0.0219,-0.0175 -0.002,-0.012 -0.002,-0.0218 0.005,-0.0289 v -3.8e-4 c -0.0115,-0.11156 0.008,-0.16601 0.0716,-0.17358 z m 47.26951,3.80705 c 2e-5,1.2e-4 -3e-5,1.9e-4 0,3.8e-4 l 1.89512,0.22401 c 0.21196,0.0251 0.41745,0.0509 0.62013,0.0775 -0.20273,-0.0266 -0.40806,-0.0528 -0.62013,-0.0778 z m 10.64279,2.72173 c 0.19849,0.0972 0.4005,0.19838 0.60661,0.30331 0.13637,0.0694 0.25986,0.13811 0.38955,0.2072 0.0865,0.0447 0.16902,0.0899 0.25325,0.13484 0.0568,0.0312 0.11514,0.0624 0.17065,0.0935 0.13834,0.0757 0.27335,0.15144 0.4049,0.22766 -0.13155,-0.0762 -0.26656,-0.15235 -0.4049,-0.22803 -0.0554,-0.0312 -0.11381,-0.0623 -0.17065,-0.0935 -0.0842,-0.045 -0.1668,-0.0901 -0.25325,-0.13484 -0.12967,-0.0691 -0.25319,-0.13778 -0.38955,-0.2072 -0.20611,-0.10492 -0.40812,-0.2057 -0.60661,-0.30294 z m -78.184185,1.40215 c -0.476726,0.001 -1.15758,0.031 -2.17358,0.0822 -3.171409,0.15993 -4.804018,0.48736 -7.098849,1.42773 -0.318027,0.13614 -0.636412,0.28063 -0.957063,0.43633 -0.09708,0.0471 -0.197591,0.0983 -0.298191,0.14982 -1.668579,0.87739 -3.498724,2.17663 -4.304037,3.01151 -0.07313,0.0758 -0.137988,0.14775 -0.193314,0.21524 -5.2e-5,7e-5 5.2e-5,0 0,0 -0.05528,0.0675 -0.101685,0.13002 -0.137401,0.18783 -4.5e-5,7e-5 4.5e-5,0 0,0 -0.01779,0.0289 -0.03308,0.0564 -0.04568,0.0826 -4.3e-5,9e-5 4.3e-5,0 0,0 -0.01257,0.0262 -0.02281,0.0508 -0.02997,0.0742 -2.9e-5,9e-5 3e-5,0 0,0 -0.01426,0.0467 -0.01757,0.088 -0.0088,0.12242 2.9e-5,1.1e-4 -2.9e-5,0 0,0 0.0044,0.0172 0.01218,0.0326 0.02266,0.0464 0.01053,0.0138 0.02403,0.0261 0.04093,0.0365 0.18835,0.11642 0.533625,-0.0775 1.192399,-0.66982 1.139877,-1.02486 3.032373,-1.95221 5.321031,-2.60772 0.874958,-0.2506 1.459848,-0.37541 1.820207,-0.37895 0.104045,-0.0106 0.186932,-0.012 0.227664,0.004 0.03928,0.0151 0.06763,0.0314 0.09684,0.0479 0.009,0.004 0.01854,0.008 0.02668,0.0132 0.06204,0.0395 0.09669,0.0832 0.103051,0.13082 0.0082,0.0275 0.01388,0.0567 0.01388,0.0899 0,0.10485 -0.568315,0.47931 -1.262927,0.83208 -0.694606,0.3528 -1.925425,1.10573 -2.735246,1.67294 l -1.472319,1.03126 0.630367,0.0771 c 0.769832,0.0938 1.347125,0.12266 1.73214,0.091 0.185824,-0.0233 0.341746,-0.0676 0.497717,-0.13813 0.01003,-0.009 0.01902,-0.0189 0.02667,-0.0289 0.0075,-0.01 0.0137,-0.0199 0.01791,-0.0307 v 0.002 c 0.0064,-0.0167 0.01673,-0.0346 0.0307,-0.0537 0.432998,-0.59343 4.395937,-2.32159 5.374384,-2.32159 0.294642,0 0.387975,0.11728 0.306595,0.3088 0.04372,0.10736 -0.02349,0.19894 -0.215238,0.31865 -0.01074,0.007 -0.05228,0.0367 -0.06614,0.0457 -0.162895,0.16076 -0.38174,0.33927 -0.666178,0.53131 -0.54025,0.36479 -1.192766,0.83868 -1.450027,1.05319 l -0.32633,0.27225 1.737255,0.0552 c 0.02164,0.002 0.04707,0.002 0.06907,0.002 l 1.700714,-0.0537 c 9.399816,-0.2965 20.590351,-1.80529 20.578111,-2.77433 -0.008,-0.62742 -0.27583,-0.70617 -1.6945,-0.49918 -1.91265,0.27913 -6.13099,0.27846 -7.938242,-0.002 -2.534266,-0.39195 -5.638264,-1.52543 -7.20519,-2.63073 -0.265853,-0.18755 -0.493228,-0.2645 -1.287776,-0.26238 z m 20.796275,2.19478 0.45386,0.66837 -0.4535,-0.66837 z"
           style="fill:#ffff00;stroke-width:0.1871"
           id="path2943" />
        <g
           id="g3244">
          <path
             style="fill:#ff0000;stroke-width:0.1871"
             d="m 89.220667,95.254546 c -0.132794,-0.0035 -0.26131,-0.0014 -0.385527,3.75e-4 -0.165298,0.01082 -0.329179,0.02857 -0.490409,0.05884 l -0.483099,0.09063 c -0.02369,0.01337 -0.04239,0.02935 -0.05993,0.04639 -0.0079,0.0098 -0.01465,0.02072 -0.02193,0.03104 -0.0215,0.04158 -0.03819,0.08911 -0.05007,0.141791 l 0.131556,0.883239 c 0.518391,3.479507 2.626787,7.719359 4.355197,8.757539 1.292587,0.7764 3.152289,1.19249 4.207932,0.97752 0.0381,-0.0156 0.07166,-0.0286 0.114013,-0.0464 0.236529,-0.0988 0.430864,-0.23996 0.585421,-0.41842 0.249849,-0.37166 0.433837,-0.93404 0.435956,-1.44966 2.3e-5,-0.005 0,-0.008 0,-0.0131 -9.19e-4,-0.0515 -0.0052,-0.10543 -0.008,-0.1586 -0.03695,-0.41412 -0.1927,-1.11243 -0.378221,-1.67039 -1.278042,-3.843738 -4.56711,-6.880576 -7.525307,-7.211027 -0.139897,-0.0095 -0.284383,-0.0169 -0.427554,-0.01973 z"
             id="path2988" />
          <path
             style="fill:#ff0000;stroke-width:0.1871"
             d="m 146.88189,79.714284 c -1.39276,0.05431 -3.05554,2.196212 -3.76722,4.870452 -0.40411,1.518514 -0.35576,4.184947 0.10305,5.670381 0.92136,2.983031 3.24472,4.473182 5.06559,3.248679 1.11418,-0.749269 1.99754,-3.356873 2.16847,-6.40161 0.12078,-2.151217 -0.15036,-3.520812 -1.04988,-5.302762 -0.61873,-1.22569 -1.27002,-1.877902 -2.05116,-2.043482 -0.14582,-0.02475 -0.30198,-0.03741 -0.46885,-0.04165 z"
             id="path2964" />
          <path
             style="fill:#ff7b7b;fill-opacity:1;stroke-width:0.1871"
             d="m 119.69131,91.714655 c -1.14178,-0.01492 -2.21982,0.180903 -3.13613,0.600406 -1.26653,0.579843 -2.50002,1.562903 -3.16609,2.524027 -0.48456,0.699231 -0.48795,0.727396 -0.19002,1.446371 0.52821,1.274752 2.25741,4.059121 3.22565,5.194231 2.06944,2.4261 4.56391,4.05189 6.21744,4.05189 0.77151,0 0.95756,-0.0814 1.43796,-0.62855 0.30352,-0.34567 0.6484,-1.01174 0.76631,-1.47999 0.19866,-0.78896 0.96132,-5.94915 1.24246,-8.405991 l 0.12205,-1.065591 -0.73816,-0.465928 c -0.3446,-0.217533 -0.7,-0.414538 -1.06195,-0.593094 -0.10451,-0.05042 -0.19965,-0.09292 -0.29965,-0.139592 -1.44293,-0.662055 -2.98124,-1.019379 -4.41987,-1.038189 z"
             id="path3073" />
          <path
             d="m 133.52901,69.852337 a 2.4569985,2.4569985 0 0 0 -2.45679,2.456783 2.4569985,2.4569985 0 0 0 2.45679,2.457159 2.4569985,2.4569985 0 0 0 2.45716,-2.457159 2.4569985,2.4569985 0 0 0 -2.45716,-2.456783 z M 98.753199,78.35736 a 2.4569985,2.4569985 0 0 0 -2.457152,2.456791 2.4569985,2.4569985 0 0 0 2.457152,2.457151 2.4569985,2.4569985 0 0 0 2.457151,-2.457151 2.4569985,2.4569985 0 0 0 -2.457151,-2.456791 z"
             style="fill:#ffffff;fill-rule:evenodd;stroke-width:0.274416;stroke-linecap:round;stroke-linejoin:round"
             id="path3142" />
        </g>
      </g>
    </g>
  </g>
</svg>
